<?xml version="1.0" encoding="utf-8"?>
<!-- Generator: Adobe Illustrator 25.0.0, SVG Export Plug-In . SVG Version: 6.00 Build 0)  -->
<svg version="1.1"
	 id="svg14" xmlns:cc="http://creativecommons.org/ns#" xmlns:dc="http://purl.org/dc/elements/1.1/" xmlns:inkscape="http://www.inkscape.org/namespaces/inkscape" xmlns:rdf="http://www.w3.org/1999/02/22-rdf-syntax-ns#" xmlns:sodipodi="http://sodipodi.sourceforge.net/DTD/sodipodi-0.dtd" xmlns:svg="http://www.w3.org/2000/svg"
	 xmlns="http://www.w3.org/2000/svg" xmlns:xlink="http://www.w3.org/1999/xlink" x="0px" y="0px" viewBox="0 0 1024 576"
	 style="enable-background:new 0 0 1024 576;" xml:space="preserve">
<style type="text/css">
	.st0{enable-background:new    ;}
	.st1{fill:#323644;}
	.st2{fill:none;stroke:#323644;}
	.st3{fill:#FFFFFF;stroke:#323644;stroke-miterlimit:0;}
	.st4{fill:url(#SVGID_1_);stroke:#323644;stroke-miterlimit:0;}
	.st5{fill:url(#SVGID_2_);stroke:#323644;stroke-miterlimit:0;}
	.st6{fill:#808080;}
	.st7{fill:url(#SVGID_3_);}
	.st8{fill:#6D93E0;}
	.st9{fill:#E8F5FA;}
	.st10{fill:#ACCF3A;}
	.st11{fill:#D9123A;}
	.st12{fill:#7C9FD3;}
	.st13{fill:#F5FBFD;stroke:#323644;stroke-miterlimit:10;}
	.st14{fill:#7C9FD3;stroke:#323644;stroke-width:0;stroke-miterlimit:0;}
	.st15{opacity:0.47;}
	.st16{fill:#F9F8F4;}
	.st17{fill:#F5FBFD;}
	.st18{fill:#666666;}
	.st19{font-family:'YuGothic-Bold';}
	.st20{font-size:58.8952px;}
	.st21{fill:none;stroke:#888888;stroke-width:1.5149;stroke-linecap:round;stroke-linejoin:round;stroke-miterlimit:10;}
	.st22{fill:#F7F7F7;}
	.st23{fill:#231815;}
	.st24{fill:url(#SVGID_4_);}
	.st25{fill:#754F3B;}
	.st26{fill:#DDE1DE;}
	.st27{fill:#94CF95;}
</style>
<g class="st0">
	<path class="st1" d="M392.6,138.2c2.3,3.2,4.9,7.5,7.6,13c0.1,0.3,0.2,0.5,0.2,0.6c0,0.3-0.2,0.6-0.7,0.8l-4.1,2.2
		c-0.3,0.2-0.6,0.3-0.7,0.3c-0.2,0-0.4-0.2-0.6-0.7l-1.3-3.2c-5.9,0.9-13.1,1.7-21.6,2.4c-1.3,0.1-2.3,0.4-2.9,0.7
		c-0.5,0.2-0.9,0.3-1.1,0.3c-0.4,0-0.7-0.4-0.9-1.2c-0.4-2.4-0.8-4.5-1-6.3c2.7,0,4.7,0,5.9-0.1c1.6-3.1,3-6.4,4.3-10.1
		c0.6-1.7,1-3.3,1.3-4.9c2.6,0.3,4.9,0.8,6.9,1.3c0.8,0.3,1.2,0.6,1.2,1.1c0,0.4-0.3,0.9-0.8,1.3c-0.4,0.3-0.8,1-1.3,2.1
		c-1.6,3.6-3.1,6.5-4.2,8.7c5.1-0.4,8.9-0.7,11.3-1c-1-1.7-1.9-3.2-2.9-4.6c-0.2-0.2-0.2-0.4-0.2-0.6c0-0.2,0.2-0.4,0.7-0.7l3.5-1.9
		c0.3-0.2,0.5-0.2,0.7-0.2C392.1,137.6,392.4,137.8,392.6,138.2z M382.4,191.1c1.5,0.2,2.9,0.3,4.3,0.3c1.6,0,2.4-0.7,2.4-2.2v-5.4
		h-12v4.7l0.1,8.9c0,0.5-0.3,0.7-0.8,0.7H371c-0.5,0-0.8-0.2-0.8-0.7l0.1-8.9v-21.7l-0.1-9c0-0.4,0-0.6,0.1-0.7
		c0.1-0.1,0.3-0.1,0.7-0.1l7.7,0.1h9l7.6-0.1c0.4,0,0.6,0,0.7,0.1c0.1,0.1,0.1,0.3,0.1,0.7l-0.1,9.7v13l0.1,9.8
		c0,2.8-0.5,4.8-1.6,5.7c-0.7,0.6-1.5,1-2.6,1.2c-1.2,0.2-2.9,0.4-5.3,0.4c-1.2,0-1.9-0.1-2.1-0.3c-0.2-0.2-0.4-0.8-0.6-1.8
		C383.6,193.7,383.1,192.3,382.4,191.1z M389.2,162.9h-12v4.8h12V162.9z M377.2,178.2h12v-4.8h-12V178.2z M423.6,135.1
		c1.6,1.3,3,2.9,4.5,4.6c0.4,0.4,0.6,0.8,0.6,1.2c0,0.4-0.3,0.7-1,0.8c-0.8,0.1-1.9,0.6-3.3,1.3c-3.9,2-9,4.1-15.3,6.2v4.3
		c0,1.2,0.4,1.9,1.2,2.2c0.8,0.3,2.7,0.4,5.5,0.4c4,0,6.4-0.4,7.2-1.3c0.4-0.4,0.7-1.2,0.8-2.2c0-0.5,0.1-1.9,0.2-4.1
		c1.3,0.8,3,1.5,5.1,2.1c0.8,0.2,1.3,0.4,1.4,0.6c0.2,0.2,0.2,0.5,0.2,1c0,0.2,0,0.5,0,0.8c-0.3,2.3-0.7,4.1-1.2,5.2
		c-0.5,1.1-1.2,1.9-2.1,2.5c-1.7,1.2-5.8,1.9-12.1,1.9c-5.6,0-9.3-0.4-11.1-1.2c-1.6-0.6-2.5-2.2-2.5-4.7v-17.1
		c0-3.1-0.1-5.5-0.4-7.1c2.7,0.1,5.1,0.3,7.2,0.5c0.8,0.1,1.2,0.4,1.2,0.8c0,0.2-0.1,0.6-0.4,1.2c-0.2,0.5-0.4,1.9-0.4,4v3.6
		c3.9-1.4,7.4-3,10.6-4.6C421.1,137.4,422.4,136.4,423.6,135.1z M424.4,182.5c1.7,0.9,3.5,1.6,5.2,2c0.8,0.2,1.2,0.3,1.4,0.5
		c0.2,0.2,0.3,0.4,0.3,0.8c0,0.2,0,0.5-0.1,1.1c-0.3,2.4-0.7,4.2-1.2,5.4c-0.5,1.1-1.2,2-2.2,2.6c-2.2,1.5-6.2,2.3-12,2.3
		c-5.9,0-9.7-0.4-11.4-1.3c-1.7-0.8-2.5-2.6-2.5-5.3v-18.3c0-3-0.1-5.4-0.4-7c2.7,0.1,5.1,0.2,7.2,0.5c0.8,0.1,1.2,0.4,1.2,0.9
		c0,0.3-0.1,0.7-0.4,1.3c-0.2,0.5-0.4,1.7-0.4,3.8v3.5c4-1.5,7.7-3.2,11.1-5.3c1.6-1,3-2,3.9-3c1.1,0.9,2.6,2.5,4.5,4.7
		c0.5,0.6,0.7,1.1,0.7,1.4c0,0.5-0.4,0.8-1.2,0.9c-0.5,0-1.6,0.5-3.3,1.3c-7,3.4-12.3,5.7-15.8,6.9v5.4c0,1.2,0.4,2,1.3,2.5
		c0.8,0.3,2.7,0.5,5.8,0.5c3.8,0,6.1-0.4,7-1.3c0.5-0.6,0.8-1.4,1-2.5C424.3,186.1,424.3,184.7,424.4,182.5z"/>
	<path class="st1" d="M490.1,155.7h-18.3c-0.6,6.9-1.8,12.7-3.6,17.5c-2.2,5.6-5.2,10.4-9.2,14.4c-3.3,3.4-7.6,6.5-12.7,9.3
		c-1,0.4-1.6,0.6-1.7,0.6c-0.4,0-1-0.5-1.7-1.5c-1.5-1.9-3-3.3-4.6-4.2c11.7-5.1,19.2-12.2,22.5-21.5c1.6-4.4,2.6-9.2,3-14.6h-11.3
		l-9.7,0.1c-0.4,0-0.7,0-0.7-0.1c-0.1-0.1-0.1-0.3-0.1-0.7v-5.9c0-0.4,0.1-0.6,0.2-0.7c0.1-0.1,0.3-0.1,0.7-0.1l9.7,0.1h11.7
		l0.1-6.3c0-3.7-0.2-6.9-0.6-9.6c3.8,0.2,6.6,0.5,8.5,0.8c1,0.1,1.4,0.5,1.4,1c0,0.5-0.2,1.1-0.6,1.8c-0.4,0.9-0.6,3-0.6,6.1
		c0,2.7,0,4.8-0.1,6.1h15.2l9.9-0.1c0.6,0,0.9,0.3,0.9,0.9c-0.1,1.4-0.1,3.6-0.1,6.5c-0.2,14.1-0.9,24.7-2.3,31.8
		c-0.7,3.7-2.1,6.2-4.2,7.6c-1.8,1.2-4.4,1.9-7.9,1.9c-0.4,0-0.9,0-1.4,0c-1.6,0-3.5-0.1-5.5-0.3c-1.2-0.1-1.9-0.3-2.1-0.6
		c-0.2-0.2-0.4-0.9-0.6-2c-0.5-2.4-1.2-4.3-2.1-5.7c3.7,0.6,7.3,0.9,10.9,0.9c2.9,0,4.7-1.6,5.3-4.8
		C489.5,177.4,490.1,167.8,490.1,155.7z"/>
	<path class="st1" d="M519.3,145h8.2l7.7-0.1c0.4,0,0.6,0,0.7,0.1c0.1,0.1,0.1,0.3,0.1,0.6v5.4c5.6-3.8,10.1-8.5,13.6-14.2
		c0.8-1.4,1.5-3,2.1-4.7c1.8,0.2,4.2,0.7,7.4,1.4c0.7,0.2,1,0.6,1,1.1c0,0.4-0.2,0.7-0.7,1.1c-0.1,0-0.2,0.2-0.4,0.4
		c4.5,6.6,10.9,12,19,16c-1.1,1.4-2.1,3.2-3,5.4c-0.5,1.2-0.9,1.8-1.2,1.8c-0.2,0-0.7-0.2-1.6-0.7c-7-4.4-12.6-10-17-16.6
		c-4.1,6.3-9.3,11.6-15.6,16c-0.9,0.6-1.4,0.9-1.7,0.9c-0.4,0-0.9-0.5-1.5-1.6c-0.9-1.6-2.1-3-3.5-4.2l2.1-1.3l-7.5-0.1h-8.2
		l-7.7,0.1c-0.4,0-0.6-0.1-0.7-0.2c-0.1-0.1-0.1-0.3-0.1-0.7v-5.2c0-0.4,0-0.6,0.1-0.7c0.1-0.1,0.3-0.1,0.7-0.1L519.3,145z
		 M534.4,196.5c0,0.5-0.2,0.8-0.7,0.8h-5.2c-0.4,0-0.6,0-0.7-0.1c-0.1-0.1-0.1-0.3-0.1-0.7v-2.2h-7.2v3.5c0,0.4,0,0.6-0.1,0.7
		c-0.1,0.1-0.3,0.1-0.7,0.1h-5.1c-0.4,0-0.7,0-0.8-0.1c-0.1-0.1-0.1-0.3-0.1-0.7l0.2-10.8v-4.6l-0.2-6.8c0-0.4,0.1-0.6,0.2-0.7
		c0.1-0.1,0.3-0.1,0.7-0.1l6.6,0.1h5.9l6.7-0.1c0.5,0,0.7,0.3,0.7,0.8l-0.1,5.5v5L534.4,196.5z M521.2,135.1h6.1l6.5-0.1
		c0.4,0,0.7,0,0.8,0.1c0.1,0.1,0.1,0.3,0.1,0.6v4.8c0,0.4-0.1,0.6-0.2,0.7c-0.1,0.1-0.3,0.1-0.7,0.1l-6.5-0.1h-6.1l-6.6,0.1
		c-0.4,0-0.6,0-0.7-0.1c-0.1-0.1-0.1-0.3-0.1-0.7v-4.8c0-0.4,0-0.6,0.1-0.7c0.1-0.1,0.3-0.1,0.7-0.1L521.2,135.1z M521.5,155.3h5.2
		l6.1-0.1c0.4,0,0.6,0,0.7,0.1c0.1,0.1,0.1,0.3,0.1,0.7v4.7c0,0.4,0,0.6-0.1,0.7c-0.1,0.1-0.3,0.1-0.7,0.1l-6.1-0.1h-5.2l-6.1,0.1
		c-0.4,0-0.6,0-0.7-0.1c-0.1-0.1-0.1-0.3-0.1-0.6v-4.7c0-0.4,0.1-0.6,0.2-0.7c0.1-0.1,0.3-0.1,0.6-0.1L521.5,155.3z M521.5,165h5.2
		l6.1-0.2c0.4,0,0.6,0,0.7,0.1c0.1,0.1,0.1,0.3,0.1,0.7v4.6c0,0.4,0,0.6-0.1,0.7c-0.1,0.1-0.3,0.1-0.7,0.1l-6.1-0.1h-5.2l-6.1,0.1
		c-0.4,0-0.6,0-0.7-0.1c-0.1-0.1-0.1-0.3-0.1-0.7v-4.6c0-0.4,0.1-0.6,0.2-0.7c0.1-0.1,0.3-0.1,0.6-0.1L521.5,165z M527.7,180.9h-7.2
		v7.4h7.2V180.9z M535.2,191.9c7.8-1.9,14.4-4.4,19.8-7.6c4.5-2.6,8.6-5.9,12.2-9.9c1.3-1.4,2.2-2.8,2.8-4c2.1,1.3,3.9,2.7,5.4,4
		c0.6,0.5,0.9,0.9,0.9,1.2c0,0.3-0.3,0.6-0.9,0.9c-0.4,0.2-1.2,1-2.3,2.3c-7.8,8.8-18.2,15.1-31.3,19c-0.9,0.2-1.4,0.4-1.7,0.4
		c-0.4,0-0.9-0.6-1.6-1.7C537.5,194.6,536.4,193.1,535.2,191.9z M536.6,164.7c7-2.6,12.6-6.2,16.8-10.8c0.8-0.9,1.6-1.9,2.1-2.9
		c1.6,1,3.3,2.2,5.2,3.7c0.5,0.5,0.8,0.9,0.8,1.2c0,0.3-0.3,0.6-1,0.9c-0.6,0.3-1.4,0.9-2.4,2c-3.8,4.2-8.8,7.8-15.1,10.7
		c-0.9,0.4-1.5,0.6-1.8,0.6c-0.4,0-0.9-0.5-1.5-1.6C539.1,167.3,538,166,536.6,164.7z M537.3,178.2c10-3.3,17.9-8.3,23.8-15.1
		c0.6-0.7,1.3-1.7,2-3c2.4,1.6,4.1,2.8,5.2,3.7c0.5,0.4,0.8,0.8,0.8,1.2c0,0.4-0.3,0.7-0.9,1.1c-0.6,0.4-1.3,0.9-1.9,1.7
		c-5.3,6.1-12.8,11.3-22.5,15.6c-0.9,0.4-1.5,0.6-1.7,0.6c-0.4,0-0.9-0.6-1.6-1.7C539.7,180.8,538.7,179.5,537.3,178.2z"/>
	<path class="st1" d="M610.8,160.3h-0.2c2.1,3.7,5.2,7.3,9.4,10.7c-1.2,1.4-2.3,3-3,4.8c-0.2,0.5-0.5,0.8-0.7,0.8
		c-0.3,0-0.7-0.4-1.2-1.1c-2.5-3.3-4.4-6.3-5.7-9.2c0,2.5,0.1,5.8,0.2,9.9c0.1,2.9,0.1,5,0.1,6.3c0,0.4,0,0.6-0.1,0.7
		c-0.1,0.1-0.3,0.1-0.7,0.1H604c-0.4,0-0.6,0-0.7-0.1c-0.1-0.1-0.1-0.3-0.1-0.6c0-1.2,0.1-6.5,0.3-15.8c-1.5,3.7-3.8,7.5-7,11.3
		c-0.5,0.6-0.9,0.9-1.1,0.9c-0.2,0-0.6-0.4-1.2-1.1c-0.7-0.9-1.4-1.7-2.2-2.4v10.1h14.4l7.3-0.1c0.4,0,0.6,0,0.7,0.1
		c0.1,0.1,0.1,0.3,0.1,0.6v5.4c0,0.3,0,0.5-0.1,0.6c2.9-4,4.8-9,5.8-15.1c0.6-4.3,1-10.5,1-18.4V151c0-4.3-0.1-8.6-0.4-12.8
		c2.2,0.3,4.4,0.8,6.5,1.4c4.2-1,8-2.4,11.4-4.3c1.4-0.8,2.7-1.6,3.8-2.6c1.8,1.6,3.5,3.3,4.9,5.2c0.3,0.4,0.5,0.9,0.5,1.4
		c0,0.4-0.4,0.7-1.1,0.8c-1.1,0.2-2,0.5-2.9,0.9c-3.8,1.9-9.1,3.6-15.8,5.1v9.3h10.8l9.8-0.1c0.5,0,0.7,0.3,0.7,0.8v5.4
		c0,0.5-0.2,0.8-0.7,0.8l-1.9,0c-1.3,0-2.8-0.1-4.5-0.1v25.8l0.1,10c0,0.5-0.2,0.8-0.7,0.8h-5.8c-0.4,0-0.6-0.1-0.7-0.2
		c-0.1-0.1-0.1-0.3-0.1-0.6l0.1-10V162h-7.1c-0.1,9.3-0.5,16-1.4,20c-1.2,5.3-3.2,10.3-6.1,14.9c-0.6,0.9-1,1.4-1.3,1.4
		c-0.2,0-0.6-0.4-1.2-1.3c-1-1.5-2.3-2.9-3.9-4.3l0.2-0.3c-0.1,0-0.3,0.1-0.6,0.1l-7.3-0.1h-14.4v3.1c0,0.4,0,0.6-0.1,0.7
		c-0.1,0.1-0.3,0.1-0.6,0.1h-5.5c-0.4,0-0.6,0-0.7-0.1c-0.1-0.1-0.1-0.3-0.1-0.6l0.1-9.5v-40c0-4.1-0.1-7.6-0.4-10.4
		c2.3,0.1,4.6,0.3,7.1,0.5c0.6,0.1,0.9,0.3,0.9,0.6c0,0.3-0.1,0.8-0.4,1.4c-0.2,0.6-0.4,2.8-0.4,6.4v29.1c4-3.7,7.2-8.1,9.6-13.2
		l-6.8,0.1c-0.4,0-0.6-0.1-0.7-0.2c-0.1-0.1-0.1-0.3-0.1-0.7v-4.8c0-0.4,0.1-0.6,0.2-0.7c0.1-0.1,0.3-0.1,0.6-0.1l7.2,0.1h1.2v-13.2
		c0-2.9-0.1-5.6-0.4-8.1c2.4,0.2,4.4,0.4,6.2,0.6c0.8,0.1,1.2,0.3,1.2,0.7c0,0.2-0.1,0.5-0.4,1.1c-0.3,0.8-0.5,2.5-0.5,5.1v13.8h1.2
		l7.3-0.1c0.4,0,0.6,0,0.7,0.1c0.1,0.1,0.1,0.3,0.1,0.7v4.8c0,0.4,0,0.6-0.1,0.7c-0.1,0.1-0.3,0.1-0.6,0.1L610.8,160.3z
		 M599.1,138.7c1.3,3.1,2.3,6.3,2.9,9.8c0,0.3,0.1,0.4,0.1,0.6c0,0.4-0.3,0.6-0.8,0.7l-3.4,0.9c-0.3,0.1-0.6,0.1-0.7,0.1
		c-0.3,0-0.5-0.3-0.6-0.8c-0.7-4.1-1.6-7.4-2.7-9.9c-0.1-0.3-0.1-0.4-0.1-0.6c0-0.3,0.3-0.5,0.8-0.7l3.3-0.9
		c0.2-0.1,0.4-0.1,0.5-0.1C598.6,137.9,598.9,138.2,599.1,138.7z M610.4,149.2c1.1-2.4,2.1-5.3,3-9c0.2-0.9,0.3-1.8,0.4-2.8
		c2.5,0.6,4.2,1.1,5.3,1.5c0.6,0.3,0.8,0.6,0.8,1c0,0.3-0.1,0.5-0.4,0.7c-0.2,0.3-0.5,0.8-0.7,1.7c-0.9,3.1-1.8,5.6-2.7,7.6
		c-0.3,0.7-0.6,1.1-0.9,1.1c-0.2,0-0.6-0.1-1.1-0.4C613.2,150.1,612,149.6,610.4,149.2z"/>
</g>
<rect x="151.3" y="60.4" class="st2" width="517.5" height="217.1"/>
<g>
	<g>
		<g>
			<g>
				
					<image style="overflow:visible;opacity:0.91;enable-background:new    ;" width="692" height="700" xlink:href="D98E1563.png"  transform="matrix(-0.2975 0 0 0.2975 362.7141 60.4219)">
				</image>
				<g>
					<ellipse class="st3" cx="259.9" cy="163.3" rx="99.1" ry="100.3"/>
				</g>
			</g>
			
				<radialGradient id="SVGID_1_" cx="116.2142" cy="471.4957" r="5.1743" fx="121.3076" fy="472.4065" gradientTransform="matrix(-1 0 0 -1 312.739 576)" gradientUnits="userSpaceOnUse">
				<stop  offset="0" style="stop-color:#FFFFFF"/>
				<stop  offset="1" style="stop-color:#F2F2F2"/>
			</radialGradient>
			<circle class="st4" cx="196.5" cy="104.5" r="5.2"/>
			
				<radialGradient id="SVGID_2_" cx="-106.359" cy="496.1281" r="25.8989" fx="-81.6036" fy="488.5175" gradientTransform="matrix(-0.5994 -3.684437e-02 4.262270e-02 -0.6934 97.8459 475.5883)" gradientUnits="userSpaceOnUse">
				<stop  offset="0" style="stop-color:#FFFFFF"/>
				<stop  offset="0.447" style="stop-color:#F6F6F6"/>
				<stop  offset="1" style="stop-color:#F2F2F2"/>
			</radialGradient>
			<path class="st5" d="M190.8,112.1c3.9,0.2-5,13.6-5.9,26.9c-0.9,13.3,2.1,20.7-1.7,20.4c-3.9-0.2-9.3-7.3-8.5-20.7
				C175.6,125.4,186.9,111.8,190.8,112.1z"/>
		</g>
		<g>
			<path class="st6" d="M131.5,333.6l66.9-81.4c1.6-1.9,4.4-2.1,6.2-0.6l4,3.2c1.9,1.6,2.1,4.4,0.6,6.2l-66.9,81.4
				c-1.6,1.9-4.4,2.1-6.2,0.6l-4-3.2C130.3,338.3,130,335.6,131.5,333.6z"/>
			
				<linearGradient id="SVGID_3_" gradientUnits="userSpaceOnUse" x1="591.2377" y1="1087.1448" x2="620.7966" y2="1087.1448" gradientTransform="matrix(-0.7732 -0.6342 0.4752 -0.5793 157.9335 1268.2042)">
				<stop  offset="0" style="stop-color:#FFFFFF"/>
				<stop  offset="1" style="stop-color:#000000"/>
			</linearGradient>
			<path class="st7" d="M193.6,245.8l1.9-2.2c0.7-0.9,2.1-1,3.1-0.2l19.4,15.9c0.9,0.7,1,2.1,0.2,3.1l-1.9,2.2
				c-0.7,0.9-2.1,1-3.1,0.2l-19.4-15.9C193,248.2,192.9,246.8,193.6,245.8z"/>
		</g>
	</g>
	<g class="st0">
		<g>
			<path class="st8" d="M203.1,182.5l-10.4,0.2c-0.4,0-0.7-0.1-0.8-0.2c-0.1-0.1-0.1-0.3-0.1-0.7v-5.3c0-0.5,0.3-0.8,0.9-0.8
				l10.4,0.2h20v-0.4c0-1.8,0-3.2-0.1-4.2h-10.2l-11.5,0.2c-0.4,0-0.7-0.1-0.8-0.2c-0.1-0.1-0.1-0.4-0.1-0.8l0.2-9.3v-13
				c-1.6,1.6-3.2,3.1-4.8,4.6c-0.8,0.7-1.4,1-1.7,1c-0.3,0-0.8-0.6-1.4-1.7c-0.9-1.8-2.1-3.4-3.4-4.7c6.3-4.2,11.3-9.5,15-16
				c1-1.8,1.7-3.5,2.2-5.1c2.8,0.5,5.4,1.1,7.7,1.9c0.7,0.2,1.1,0.6,1.1,1.1c0,0.5-0.3,0.9-0.8,1.2c-0.7,0.6-1.5,1.5-2.2,2.6l-1.4,2
				H226c1-1.7,1.7-3.1,2.2-4.4c0.6-1.4,1-2.8,1.3-4.2c2.7,0.5,5.3,1,7.8,1.7c0.7,0.2,1,0.6,1,1.2c0,0.4-0.3,0.8-0.8,1.2
				c-0.6,0.5-1.1,1.2-1.6,2.1c-0.7,1.3-1.2,2.2-1.4,2.4H247l11.1-0.2c0.6,0,0.9,0.3,0.9,0.8v4.8c0,0.5-0.1,0.8-0.2,0.9
				c-0.1,0.1-0.4,0.1-0.8,0.1l-11.1-0.2h-14.2v4.1h10.4l11.1-0.2c0.5,0,0.8,0.1,0.8,0.2c0.1,0.1,0.2,0.3,0.2,0.7v4.1
				c0,0.4-0.1,0.7-0.2,0.8c-0.1,0.1-0.4,0.1-0.8,0.1l-11.1-0.2h-10.4v4.1h10.4l11.1-0.2c0.5,0,0.8,0.1,0.8,0.2
				c0.1,0.1,0.2,0.3,0.2,0.7v4c0,0.4-0.1,0.7-0.2,0.8c-0.1,0.1-0.4,0.1-0.8,0.1l-11.1-0.2h-10.4v4.4h14.9l11.3-0.2
				c0.4,0,0.7,0.1,0.8,0.2c0.1,0.1,0.1,0.3,0.1,0.7v4.6c0,0.5,0,0.7-0.1,0.8c-0.1,0.1-0.3,0.2-0.7,0.2l-11.3-0.2h-15.8l-0.2,0.5
				c-0.2,0.3-0.2,1.5-0.2,3.6v0.5h20.8l10.4-0.2c0.6,0,0.9,0.3,0.9,0.8v5.3c0,0.4,0,0.6-0.1,0.7c-0.1,0.1-0.3,0.1-0.7,0.1l-10.4-0.2
				h-15.4c7.2,4.8,16.7,8.3,28.4,10.3c-1.3,1.4-2.3,3.3-3.2,5.5c-0.6,1.5-1.2,2.2-1.6,2.2c-0.2,0-0.9-0.1-1.9-0.4
				c-11.5-3.5-20.5-8.3-27.1-14.5l0.3,15.6c0,0.6-0.3,0.9-0.8,0.9h-7.1c-0.5,0-0.8-0.3-0.8-0.9c0-0.1,0-1.9,0.1-5.4
				c0.1-3.2,0.2-6.5,0.2-9.9c-5.9,5.9-14.8,10.6-26.6,14.1c-1.2,0.3-1.9,0.5-2,0.5c-0.6,0-1.1-0.7-1.6-2.1c-0.7-1.9-1.7-3.6-3-5
				c11.7-2.6,20.8-6.2,27.3-10.8H203.1z M208.6,145.6h16.6v-4.1h-16.6V145.6z M208.6,155.3h16.6v-4.1h-16.6V155.3z M208.6,165.1
				h16.6v-4.4h-16.6V165.1z"/>
			<path class="st8" d="M332.4,134.2l10.8-0.2c0.4,0,0.7,0.1,0.8,0.2c0.1,0.1,0.1,0.4,0.1,0.8l-0.2,3.9v3.4l0.2,8.8
				c0,0.4-0.1,0.7-0.2,0.8c-0.1,0.1-0.3,0.1-0.7,0.1h-6.7c-0.4,0-0.7-0.1-0.8-0.2c-0.1-0.1-0.1-0.3-0.1-0.7v-9.6h-34.9
				c1.4,0.3,3.7,0.8,6.7,1.6c0.8,0.3,1.2,0.6,1.2,1c0,0.4-0.3,0.7-1,1.1c-0.3,0.2-0.8,0.7-1.6,1.6l-0.6,0.8h17.4
				c0.8,0,1.5-0.1,2-0.3c0.6-0.2,1-0.3,1.1-0.3c0.6,0,1.7,0.8,3.3,2.5c1.5,1.7,2.3,3,2.3,3.6c0,0.6-0.4,1.1-1.1,1.4
				c-0.5,0.2-1.5,1-2.9,2.4c-3.3,3.2-6.7,5.9-10.1,8.3c8.3,3.2,18.5,5.5,30.5,6.9c-1.3,1.8-2.4,3.9-3.1,6.2
				c-0.4,1.2-0.9,1.8-1.4,1.8c-0.3,0-0.9-0.1-1.8-0.3c-3.1-0.6-6.1-1.2-8.9-2c-0.1,1.3-0.2,3.2-0.2,5.8v6.5l0.2,11.1
				c0,0.5-0.1,0.7-0.2,0.8c-0.1,0.1-0.3,0.1-0.7,0.1h-6.7c-0.4,0-0.7-0.1-0.8-0.2c-0.1-0.1-0.1-0.4-0.1-0.8v-2.5h-29.3v2.4
				c0,0.5-0.1,0.8-0.2,0.9c-0.1,0.1-0.3,0.1-0.7,0.1h-6.5c-0.5,0-0.8-0.1-0.8-0.2c-0.1-0.1-0.1-0.4-0.1-0.8l0.1-10.9v-5.6l-0.1-5.9
				c-2.4,0.7-5.1,1.4-8.1,2.1c-1,0.2-1.6,0.3-1.8,0.3c-0.5,0-1.1-0.6-1.6-1.9c-0.7-1.7-1.7-3.5-3.1-5.2c12.3-2,22.4-4.9,30.3-8.5
				c-2.8-1.9-5.7-4.1-8.8-6.8c-3,2.2-6.3,4.2-10,6.1c-1.2,0.5-1.9,0.8-2,0.8c-0.3,0-0.8-0.4-1.3-1.3c-1.2-1.9-2.5-3.4-3.9-4.4
				c9.3-4.2,16.4-9.1,21.1-14.7c1-1.3,1.8-2.6,2.5-3.8h-16.7v9.6c0,0.4-0.1,0.7-0.2,0.8c-0.1,0.1-0.3,0.1-0.7,0.1h-6.7
				c-0.4,0-0.7-0.1-0.8-0.2c-0.1-0.1-0.1-0.3-0.1-0.7l0.2-8.8v-2.7l-0.2-4.6c0-0.5,0.1-0.7,0.2-0.8c0.1-0.1,0.3-0.1,0.7-0.1
				l10.8,0.2h18v-1.3c0-2.4-0.2-4.5-0.6-6.1c3.2,0.1,6.1,0.2,8.8,0.5c0.9,0.1,1.3,0.3,1.3,0.8c0,0.3-0.2,0.8-0.5,1.6
				c-0.3,0.8-0.4,2-0.4,3.4v1.2H332.4z M294.2,176.6h33.5c-6.7-1.9-12.5-4.1-17.6-6.7C305.4,172.3,300.1,174.6,294.2,176.6z
				 M295.2,183.2v8.8h29.3v-8.8H295.2z M299,154.3c3.2,2.7,6.8,5.2,10.8,7.3c3.4-2.2,6.7-4.7,9.7-7.5h-20.3L299,154.3z"/>
		</g>
		<g>
			<path class="st8" d="M203.1,182.5l-10.4,0.2c-0.4,0-0.7-0.1-0.8-0.2c-0.1-0.1-0.1-0.3-0.1-0.7v-5.3c0-0.5,0.3-0.8,0.9-0.8
				l10.4,0.2h20v-0.4c0-1.8,0-3.2-0.1-4.2h-10.2l-11.5,0.2c-0.4,0-0.7-0.1-0.8-0.2c-0.1-0.1-0.1-0.4-0.1-0.8l0.2-9.3v-13
				c-1.6,1.6-3.2,3.1-4.8,4.6c-0.8,0.7-1.4,1-1.7,1c-0.3,0-0.8-0.6-1.4-1.7c-0.9-1.8-2.1-3.4-3.4-4.7c6.3-4.2,11.3-9.5,15-16
				c1-1.8,1.7-3.5,2.2-5.1c2.8,0.5,5.4,1.1,7.7,1.9c0.7,0.2,1.1,0.6,1.1,1.1c0,0.5-0.3,0.9-0.8,1.2c-0.7,0.6-1.5,1.5-2.2,2.6l-1.4,2
				H226c1-1.7,1.7-3.1,2.2-4.4c0.6-1.4,1-2.8,1.3-4.2c2.7,0.5,5.3,1,7.8,1.7c0.7,0.2,1,0.6,1,1.2c0,0.4-0.3,0.8-0.8,1.2
				c-0.6,0.5-1.1,1.2-1.6,2.1c-0.7,1.3-1.2,2.2-1.4,2.4H247l11.1-0.2c0.6,0,0.9,0.3,0.9,0.8v4.8c0,0.5-0.1,0.8-0.2,0.9
				c-0.1,0.1-0.4,0.1-0.8,0.1l-11.1-0.2h-14.2v4.1h10.4l11.1-0.2c0.5,0,0.8,0.1,0.8,0.2c0.1,0.1,0.2,0.3,0.2,0.7v4.1
				c0,0.4-0.1,0.7-0.2,0.8c-0.1,0.1-0.4,0.1-0.8,0.1l-11.1-0.2h-10.4v4.1h10.4l11.1-0.2c0.5,0,0.8,0.1,0.8,0.2
				c0.1,0.1,0.2,0.3,0.2,0.7v4c0,0.4-0.1,0.7-0.2,0.8c-0.1,0.1-0.4,0.1-0.8,0.1l-11.1-0.2h-10.4v4.4h14.9l11.3-0.2
				c0.4,0,0.7,0.1,0.8,0.2c0.1,0.1,0.1,0.3,0.1,0.7v4.6c0,0.5,0,0.7-0.1,0.8c-0.1,0.1-0.3,0.2-0.7,0.2l-11.3-0.2h-15.8l-0.2,0.5
				c-0.2,0.3-0.2,1.5-0.2,3.6v0.5h20.8l10.4-0.2c0.6,0,0.9,0.3,0.9,0.8v5.3c0,0.4,0,0.6-0.1,0.7c-0.1,0.1-0.3,0.1-0.7,0.1l-10.4-0.2
				h-15.4c7.2,4.8,16.7,8.3,28.4,10.3c-1.3,1.4-2.3,3.3-3.2,5.5c-0.6,1.5-1.2,2.2-1.6,2.2c-0.2,0-0.9-0.1-1.9-0.4
				c-11.5-3.5-20.5-8.3-27.1-14.5l0.3,15.6c0,0.6-0.3,0.9-0.8,0.9h-7.1c-0.5,0-0.8-0.3-0.8-0.9c0-0.1,0-1.9,0.1-5.4
				c0.1-3.2,0.2-6.5,0.2-9.9c-5.9,5.9-14.8,10.6-26.6,14.1c-1.2,0.3-1.9,0.5-2,0.5c-0.6,0-1.1-0.7-1.6-2.1c-0.7-1.9-1.7-3.6-3-5
				c11.7-2.6,20.8-6.2,27.3-10.8H203.1z M208.6,145.6h16.6v-4.1h-16.6V145.6z M208.6,155.3h16.6v-4.1h-16.6V155.3z M208.6,165.1
				h16.6v-4.4h-16.6V165.1z"/>
			<path class="st8" d="M332.4,134.2l10.8-0.2c0.4,0,0.7,0.1,0.8,0.2c0.1,0.1,0.1,0.4,0.1,0.8l-0.2,3.9v3.4l0.2,8.8
				c0,0.4-0.1,0.7-0.2,0.8c-0.1,0.1-0.3,0.1-0.7,0.1h-6.7c-0.4,0-0.7-0.1-0.8-0.2c-0.1-0.1-0.1-0.3-0.1-0.7v-9.6h-34.9
				c1.4,0.3,3.7,0.8,6.7,1.6c0.8,0.3,1.2,0.6,1.2,1c0,0.4-0.3,0.7-1,1.1c-0.3,0.2-0.8,0.7-1.6,1.6l-0.6,0.8h17.4
				c0.8,0,1.5-0.1,2-0.3c0.6-0.2,1-0.3,1.1-0.3c0.6,0,1.7,0.8,3.3,2.5c1.5,1.7,2.3,3,2.3,3.6c0,0.6-0.4,1.1-1.1,1.4
				c-0.5,0.2-1.5,1-2.9,2.4c-3.3,3.2-6.7,5.9-10.1,8.3c8.3,3.2,18.5,5.5,30.5,6.9c-1.3,1.8-2.4,3.9-3.1,6.2
				c-0.4,1.2-0.9,1.8-1.4,1.8c-0.3,0-0.9-0.1-1.8-0.3c-3.1-0.6-6.1-1.2-8.9-2c-0.1,1.3-0.2,3.2-0.2,5.8v6.5l0.2,11.1
				c0,0.5-0.1,0.7-0.2,0.8c-0.1,0.1-0.3,0.1-0.7,0.1h-6.7c-0.4,0-0.7-0.1-0.8-0.2c-0.1-0.1-0.1-0.4-0.1-0.8v-2.5h-29.3v2.4
				c0,0.5-0.1,0.8-0.2,0.9c-0.1,0.1-0.3,0.1-0.7,0.1h-6.5c-0.5,0-0.8-0.1-0.8-0.2c-0.1-0.1-0.1-0.4-0.1-0.8l0.1-10.9v-5.6l-0.1-5.9
				c-2.4,0.7-5.1,1.4-8.1,2.1c-1,0.2-1.6,0.3-1.8,0.3c-0.5,0-1.1-0.6-1.6-1.9c-0.7-1.7-1.7-3.5-3.1-5.2c12.3-2,22.4-4.9,30.3-8.5
				c-2.8-1.9-5.7-4.1-8.8-6.8c-3,2.2-6.3,4.2-10,6.1c-1.2,0.5-1.9,0.8-2,0.8c-0.3,0-0.8-0.4-1.3-1.3c-1.2-1.9-2.5-3.4-3.9-4.4
				c9.3-4.2,16.4-9.1,21.1-14.7c1-1.3,1.8-2.6,2.5-3.8h-16.7v9.6c0,0.4-0.1,0.7-0.2,0.8c-0.1,0.1-0.3,0.1-0.7,0.1h-6.7
				c-0.4,0-0.7-0.1-0.8-0.2c-0.1-0.1-0.1-0.3-0.1-0.7l0.2-8.8v-2.7l-0.2-4.6c0-0.5,0.1-0.7,0.2-0.8c0.1-0.1,0.3-0.1,0.7-0.1
				l10.8,0.2h18v-1.3c0-2.4-0.2-4.5-0.6-6.1c3.2,0.1,6.1,0.2,8.8,0.5c0.9,0.1,1.3,0.3,1.3,0.8c0,0.3-0.2,0.8-0.5,1.6
				c-0.3,0.8-0.4,2-0.4,3.4v1.2H332.4z M294.2,176.6h33.5c-6.7-1.9-12.5-4.1-17.6-6.7C305.4,172.3,300.1,174.6,294.2,176.6z
				 M295.2,183.2v8.8h29.3v-8.8H295.2z M299,154.3c3.2,2.7,6.8,5.2,10.8,7.3c3.4-2.2,6.7-4.7,9.7-7.5h-20.3L299,154.3z"/>
		</g>
	</g>
</g>
<g>
	<g>
		<g>
			
				<image style="overflow:visible;opacity:0.75;" width="332" height="223" xlink:href="D98E1565.png"  transform="matrix(1 0 0 1 201.5369 294.0986)">
			</image>
			<g>
				<g>
					<rect x="214.8" y="307.3" class="st9" width="301.2" height="191.8"/>
				</g>
			</g>
		</g>
		<g>
			<path class="st10" d="M444.9,364.6H230.6c-1.3,0-2.3-1.1-2.3-2.3c0-1.3,1-2.3,2.3-2.3h214.2c1.3,0,2.3,1,2.3,2.3
				C447.2,363.5,446.2,364.6,444.9,364.6z"/>
		</g>
		<g>
			<path class="st11" d="M444.9,355.9H230.6c-1.3,0-2.3-1-2.3-2.3c0-1.3,1-2.3,2.3-2.3h214.2c1.3,0,2.3,1,2.3,2.3
				C447.2,354.9,446.2,355.9,444.9,355.9z"/>
		</g>
	</g>
	<g>
		<g>
			<rect x="230.6" y="375.9" class="st12" width="76.2" height="59.7"/>
		</g>
		<g>
			<rect x="313.3" y="375.9" class="st12" width="108.1" height="59.7"/>
		</g>
		<g>
			<rect x="432" y="378.7" class="st6" width="65.1" height="112.7"/>
		</g>
		<circle class="st1" cx="490.1" cy="435.6" r="3.8"/>
	</g>
	<path class="st1" d="M477.4,355.8l12,13.1l3.2-3.1l-12.4-13.5l4.3-5.2c0,0,1.9-2.6,6.3-2.9c0,0,10-0.8,10.4-10.5c0,0,0.7-5.5-4-8
		c0,0-7-3.6-12.7,4.1c0,0-2.5,3.6-2,8.1c0,0,0.5,3.3-1,5.2l-4.7,5.6l-3.1-3.4c-1.8-1.7-1.3-3.9-1.3-3.9c0.9-2.3,0.5-4.7,0.5-4.7
		c0-0.9-0.7-2.1-1.3-2.8l-8.3-8.9c-0.7-0.7-1.8-0.8-2.5-0.1c-0.7,0.7-0.8,1.8-0.1,2.5l6.5,7c0.9,0.9,0.8,1.6,0.5,2.1
		c-0.6,0.8-1.5,0.8-2.3,0.1l-6.9-7.4c-0.7-0.7-1.8-0.8-2.5-0.1c-0.7,0.7-0.8,1.8-0.1,2.5l6.4,6.9c0.8,1,0.8,1.5,0.6,2
		c-0.3,1.1-1.9,1.3-2.8,0.3l-7-7.5c-0.7-0.7-1.8-0.8-2.5-0.1c-0.7,0.7-0.8,1.8-0.1,2.5l8.3,8.9c0.2,0.2,0.7,0.6,0.7,0.6
		c3.3,2.6,7.6,1.4,7.6,1.4c2,0.1,3.2,1.6,3.2,1.6l3.5,3.8L462.7,366l3.7,3L477.4,355.8z"/>
</g>
<g>
	<g>
		<g>
			
				<image style="overflow:visible;opacity:0.75;" width="261" height="396" xlink:href="D98E1566.png"  transform="matrix(1 0 0 1 702.6883 77.3358)">
			</image>
			<g>
				<g>
					<path class="st13" d="M717.1,91.2V455h228.6V91.2h-85.9c-18.7,0-37.7,0-56.4,0H717.1z"/>
				</g>
			</g>
		</g>
		<g>
			<g>
				<g>
					<rect x="739.4" y="213.8" class="st14" width="178.6" height="63.6"/>
				</g>
			</g>
		</g>
		<g>
			<rect x="842.2" y="380.2" class="st6" width="71.3" height="74.3"/>
		</g>
	</g>
	<g class="st15">
		<g>
			<g>
				<rect x="737.5" y="224.7" class="st16" width="141.3" height="89.9"/>
			</g>
			<g>
				<path class="st10" d="M845.3,251.6H744.9c-0.6,0-1.1-0.5-1.1-1.1c0-0.6,0.5-1.1,1.1-1.1h100.5c0.6,0,1.1,0.5,1.1,1.1
					C846.4,251.1,845.9,251.6,845.3,251.6z"/>
			</g>
			<g>
				<path class="st11" d="M845.3,247.5H744.9c-0.6,0-1.1-0.5-1.1-1.1c0-0.6,0.5-1.1,1.1-1.1h100.5c0.6,0,1.1,0.5,1.1,1.1
					C846.4,247,845.9,247.5,845.3,247.5z"/>
			</g>
		</g>
		<g>
			<g>
				<rect x="744.9" y="256.9" class="st12" width="35.7" height="28"/>
			</g>
			<g>
				<rect x="783.6" y="256.9" class="st12" width="50.7" height="28"/>
			</g>
			<g>
				<rect x="839.3" y="258.2" class="st12" width="30.5" height="52.9"/>
			</g>
			<circle class="st1" cx="866.5" cy="284.9" r="1.8"/>
		</g>
		<path class="st1" d="M860.6,247.5l5.6,6.1l1.5-1.4l-5.8-6.3l2-2.4c0,0,0.9-1.2,2.9-1.4c0,0,4.7-0.4,4.9-4.9c0,0,0.3-2.6-1.9-3.8
			c0,0-3.3-1.7-5.9,1.9c0,0-1.2,1.7-0.9,3.8c0,0,0.2,1.6-0.5,2.4l-2.2,2.6l-1.5-1.6c-0.8-0.8-0.6-1.8-0.6-1.8
			c0.4-1.1,0.2-2.2,0.2-2.2c0-0.4-0.3-1-0.6-1.3l-3.9-4.2c-0.3-0.3-0.8-0.4-1.2,0c-0.3,0.3-0.4,0.8,0,1.2l3,3.3
			c0.4,0.4,0.4,0.7,0.2,1c-0.3,0.4-0.7,0.4-1.1,0l-3.2-3.5c-0.3-0.3-0.8-0.4-1.2,0c-0.3,0.3-0.4,0.8,0,1.2l3,3.2
			c0.4,0.5,0.4,0.7,0.3,0.9c-0.1,0.5-0.9,0.6-1.3,0.2l-3.3-3.5c-0.3-0.3-0.8-0.4-1.2,0c-0.3,0.3-0.4,0.8,0,1.2l3.9,4.2
			c0.1,0.1,0.3,0.3,0.3,0.3c1.6,1.2,3.6,0.7,3.6,0.7c0.9,0,1.5,0.7,1.5,0.7l1.7,1.8l-5.3,6.4l1.8,1.4L860.6,247.5z"/>
	</g>
	<rect x="736.7" y="276.6" class="st17" width="186.1" height="43.2"/>
	<g>
		<rect x="739.3" y="296" class="st14" width="82.6" height="59.7"/>
	</g>
	<g>
		<rect x="837.4" y="296" class="st14" width="82.6" height="59.7"/>
	</g>
	<g>
		<rect x="739.4" y="127.2" class="st14" width="82.6" height="59.7"/>
	</g>
	<g>
		<rect x="837.4" y="127.2" class="st14" width="82.6" height="59.7"/>
	</g>
</g>
<g>
	<path class="st1" d="M127.6,77.1c-0.8,0.8-1.5,1.7-2,2.8c-0.3,0.6-0.5,0.9-0.7,0.9c-0.1,0-0.4-0.1-0.8-0.4
		c-6.7-4.3-11-10.1-12.8-17.3c-1.9,7.7-6.3,13.5-13.1,17.3c-0.4,0.2-0.7,0.4-0.8,0.4c-0.2,0-0.4-0.3-0.7-0.9
		c-0.5-0.9-1.2-1.7-2.1-2.4c4.9-2.3,8.6-5.8,11.1-10.5c2-3.9,3-8.2,3-13.1c0-2-0.1-3.6-0.2-4.7c1.4,0.1,2.9,0.2,4.5,0.4
		c0.5,0.1,0.7,0.2,0.7,0.6c0,0.2-0.1,0.5-0.4,0.9c-0.2,0.3-0.3,1.1-0.3,2.4c0,0.3,0,0.7,0,1.3c0.8,5.7,2.6,10.4,5.2,14.1
		C120.4,72.2,123.6,74.9,127.6,77.1z"/>
	<path class="st1" d="M104.7,94.7c0.4-1.3,0.7-2.8,1.1-4.6c0.2-1.4,0.4-2.8,0.4-4c1.8,0.4,3.2,0.8,4.3,1.2c0.4,0.1,0.6,0.4,0.6,0.7
		c0,0.2-0.1,0.4-0.2,0.5c-0.3,0.4-0.5,0.8-0.7,1.4c-0.2,0.5-0.4,1.3-0.7,2.3c-0.3,0.9-0.5,1.6-0.6,2c0.9-0.1,1.8-0.2,2.9-0.2
		c3.5,0,5.2,2.3,5.2,7c0,2.2-0.2,4.4-0.6,6.6c-0.4,2-0.8,3.6-1.4,4.8c-1,2.3-2.6,3.4-4.9,3.4c-1.7,0-3-0.2-3.8-0.5
		c-0.4-0.2-0.7-0.5-0.7-1c-0.1-1.5-0.4-2.6-0.7-3.4c1.3,0.6,2.7,0.9,4.2,0.9c0.6,0,1.1-0.2,1.5-0.5c0.3-0.3,0.6-0.8,0.8-1.5
		c0.9-2.5,1.4-5.5,1.4-9c0-1.3-0.2-2.2-0.5-2.7c-0.3-0.4-0.8-0.6-1.6-0.6c-0.8,0-1.8,0.1-3,0.2c-2.4,6.9-4.8,12.6-7.3,17
		c-0.1,0.3-0.3,0.4-0.5,0.4c-0.1,0-0.3,0-0.4-0.1c-1.1-0.5-2-1.1-2.5-1.6c-0.2-0.2-0.3-0.4-0.3-0.5c0-0.1,0-0.3,0.1-0.4
		c2.9-5,5.1-9.7,6.6-14.2c-0.8,0.1-2,0.3-3.5,0.6c-0.6,0.1-1.3,0.3-2,0.6c-0.2,0.1-0.3,0.1-0.4,0.1c-0.3,0-0.6-0.2-0.7-0.6
		c-0.3-0.9-0.7-2.1-1.1-3.7c1.3,0,2.9-0.1,4.8-0.2C101.7,95.2,103.1,95,104.7,94.7z M117.2,94.5c1.4-0.9,2.3-1.5,2.9-1.9
		c0.1,0,0.2-0.1,0.2-0.1c0.1,0,0.3,0.1,0.4,0.2c2.7,2.6,4.7,5.5,6,8.8c0.1,0.1,0.1,0.2,0.1,0.3c0,0.1-0.1,0.3-0.2,0.4
		c-0.7,0.6-1.6,1.2-2.7,1.8c-0.1,0.1-0.3,0.1-0.4,0.1c-0.2,0-0.4-0.1-0.5-0.4C121.6,99.9,119.6,96.8,117.2,94.5z M119.1,88.9
		l1.9-1.3c0.1-0.1,0.1-0.1,0.2-0.1c0.1,0,0.2,0.1,0.3,0.2c1.2,1,2.4,2.2,3.4,3.9c0.1,0.1,0.1,0.2,0.1,0.3c0,0.1-0.1,0.2-0.2,0.3
		l-1.5,1.1c-0.1,0.1-0.2,0.1-0.3,0.1c-0.1,0-0.2-0.1-0.3-0.2C121.7,91.4,120.5,90,119.1,88.9z M122.5,86.5l1.8-1.3
		c0.1-0.1,0.2-0.1,0.2-0.1c0.1,0,0.2,0.1,0.3,0.2c1.4,1.1,2.5,2.3,3.4,3.7c0.1,0.1,0.1,0.2,0.1,0.3c0,0.1-0.1,0.2-0.2,0.4l-1.4,1.1
		c-0.1,0.1-0.2,0.1-0.3,0.1c-0.1,0-0.2-0.1-0.3-0.2C125.1,89,123.9,87.7,122.5,86.5z"/>
	<path class="st1" d="M100.4,144.3l-4.6,0.1c-0.2,0-0.3,0-0.4-0.1c0,0-0.1-0.2-0.1-0.3v-2.3c0-0.2,0.1-0.4,0.4-0.4l4.6,0.1h8.8v-0.2
		c0-0.8,0-1.4,0-1.8h-4.5l-5.1,0.1c-0.2,0-0.3,0-0.3-0.1c0,0-0.1-0.2-0.1-0.4l0.1-4.1v-5.7c-0.7,0.7-1.4,1.4-2.1,2
		c-0.4,0.3-0.6,0.5-0.8,0.5c-0.2,0-0.4-0.3-0.6-0.8c-0.4-0.8-0.9-1.5-1.5-2.1c2.8-1.8,5-4.2,6.6-7c0.4-0.8,0.8-1.5,1-2.2
		c1.2,0.2,2.4,0.5,3.4,0.8c0.3,0.1,0.5,0.3,0.5,0.5c0,0.2-0.1,0.4-0.3,0.5c-0.3,0.3-0.6,0.7-1,1.2l-0.6,0.9h6.7
		c0.4-0.7,0.7-1.4,1-1.9c0.2-0.6,0.4-1.2,0.6-1.9c1.2,0.2,2.3,0.5,3.4,0.8c0.3,0.1,0.4,0.3,0.4,0.5c0,0.2-0.1,0.3-0.4,0.5
		c-0.3,0.2-0.5,0.5-0.7,0.9c-0.3,0.6-0.5,0.9-0.6,1.1h5.5l4.9-0.1c0.3,0,0.4,0.1,0.4,0.4v2.1c0,0.2,0,0.3-0.1,0.4
		c0,0-0.2,0.1-0.3,0.1l-4.9-0.1h-6.3v1.8h4.6l4.9-0.1c0.2,0,0.3,0,0.4,0.1c0,0,0.1,0.2,0.1,0.3v1.8c0,0.2,0,0.3-0.1,0.3
		c0,0-0.2,0.1-0.4,0.1l-4.9-0.1h-4.6v1.8h4.6l4.9-0.1c0.2,0,0.3,0,0.4,0.1c0,0,0.1,0.2,0.1,0.3v1.8c0,0.2,0,0.3-0.1,0.3
		c0,0-0.2,0.1-0.4,0.1l-4.9-0.1h-4.6v1.9h6.6l5-0.1c0.2,0,0.3,0,0.3,0.1s0.1,0.2,0.1,0.3v2c0,0.2,0,0.3-0.1,0.4c0,0-0.2,0.1-0.3,0.1
		l-5-0.1h-7l-0.1,0.2c-0.1,0.1-0.1,0.7-0.1,1.6v0.2h9.2l4.6-0.1c0.3,0,0.4,0.1,0.4,0.4v2.3c0,0.2,0,0.3-0.1,0.3c0,0-0.2,0.1-0.3,0.1
		l-4.6-0.1h-6.8c3.2,2.1,7.3,3.6,12.5,4.6c-0.6,0.6-1,1.4-1.4,2.4c-0.3,0.6-0.5,1-0.7,1c-0.1,0-0.4-0.1-0.8-0.2
		c-5.1-1.5-9-3.7-12-6.4l0.1,6.9c0,0.3-0.1,0.4-0.4,0.4h-3.1c-0.2,0-0.4-0.1-0.4-0.4c0,0,0-0.8,0.1-2.4c0-1.4,0.1-2.9,0.1-4.4
		c-2.6,2.6-6.5,4.7-11.7,6.2c-0.5,0.1-0.8,0.2-0.9,0.2c-0.2,0-0.5-0.3-0.7-0.9c-0.3-0.8-0.7-1.6-1.3-2.2c5.2-1.2,9.2-2.7,12-4.8
		H100.4z M102.8,128.1h7.3v-1.8h-7.3V128.1z M102.8,132.3h7.3v-1.8h-7.3V132.3z M102.8,136.7h7.3v-1.9h-7.3V136.7z"/>
	<path class="st1" d="M112.2,162.9c0.4-1.2,0.7-2.6,1-4.4c0.1-0.6,0.1-1.2,0.1-1.6c0-0.3,0-0.6-0.1-0.9c1.7,0.4,3.2,0.8,4.3,1.4
		c0.4,0.2,0.6,0.4,0.6,0.7c0,0.2-0.1,0.4-0.2,0.6c-0.3,0.4-0.5,0.9-0.7,1.3c-0.4,1-0.7,2-1,2.9c3.1,0.5,5.6,1.8,7.3,3.8
		c1.6,1.8,2.3,4.1,2.3,6.7c0,6.2-3.7,10.3-11.1,12.1c-0.2,0-0.4,0.1-0.5,0.1c-0.3,0-0.6-0.2-0.9-0.7c-0.7-1.1-1.4-1.9-2.3-2.4
		c7.2-1.5,10.8-4.7,10.8-9.6c0-2-0.7-3.6-2-4.9c-1.2-1.1-2.7-1.8-4.5-2c-1.8,4.3-3.5,7.8-5.3,10.6c0.6,0.8,1.1,1.4,1.6,1.8
		c-0.9,1.1-1.7,1.9-2.2,2.2c-0.2,0.1-0.3,0.2-0.5,0.2c-0.2,0-0.3-0.1-0.5-0.2c-0.4-0.4-0.7-0.7-1-1.1c-2.2,2.3-4.2,3.4-6,3.4
		c-1.5,0-2.7-0.6-3.6-1.8c-0.8-1.1-1.2-2.4-1.2-4.1c0-3.8,1.7-7.3,5.1-10.4c-0.1-0.4-0.5-2-1.1-4.8c-0.4-1.7-0.8-2.8-1.1-3.4
		c1.8,0.1,3.2,0.3,4.1,0.6c0.5,0.1,0.7,0.5,0.7,1c0,0.8,0,1.4,0.1,2.1c0.2,1.2,0.4,2,0.5,2.6C106.9,163.8,109.4,163.1,112.2,162.9z
		 M102.7,170.6c-1.7,2-2.5,4.1-2.5,6.3c0,0.7,0.1,1.2,0.4,1.6c0.2,0.4,0.5,0.6,0.9,0.6c1.1,0,2.3-0.9,3.8-2.6
		C104.1,174.3,103.3,172.3,102.7,170.6z M105.7,168.2c0.6,2,1.2,3.8,2,5.3c1.1-1.8,2.2-4.2,3.4-7.3
		C109.2,166.4,107.4,167.1,105.7,168.2z"/>
	<path class="st1" d="M112.3,195.6c-2.3,0.4-4.6,0.9-7,1.4c-0.6,0.1-1.1,0.3-1.5,0.4c-0.3,0.1-0.5,0.2-0.7,0.2
		c-0.4,0-0.6-0.2-0.8-0.6c-0.4-0.7-0.8-2-1.3-3.9c0.6,0.1,1.3,0.1,2,0.1c0.5,0,0.9,0,1.4-0.1c2.5-0.2,5.2-0.7,8.2-1.2
		c1-0.2,1.7-0.4,2-0.5c0.3-0.2,0.6-0.3,0.7-0.3c0.3,0,0.6,0.1,0.8,0.3c1,0.7,1.8,1.5,2.4,2.3c0.3,0.3,0.4,0.6,0.4,0.9
		c0,0.4-0.2,0.7-0.6,0.9c-0.4,0.2-0.9,0.6-1.6,1.1c-0.7,0.7-2.1,2.1-4.1,4.1c-1.5,1.5-2.7,2.7-3.7,3.6l0,0.1
		c1.9-1.1,3.8-1.6,5.8-1.6c2.8,0,5.1,0.9,6.8,2.7c1.5,1.6,2.2,3.6,2.2,6c0,3.2-1.3,5.8-3.9,7.6c-2.2,1.6-5.2,2.3-8.8,2.3
		c-2.4,0-4.3-0.5-5.6-1.6c-1.1-0.9-1.7-2.2-1.7-3.7c0-1.3,0.6-2.4,1.7-3.3c1-0.8,2.1-1.1,3.4-1.1c1.8,0,3.4,0.5,4.6,1.5
		c1.1,0.9,1.8,2.2,2.2,3.8c1.4-0.6,2.3-1.4,2.9-2.3c0.5-0.8,0.8-1.9,0.8-3.2c0-1.8-0.6-3.1-1.8-4.2c-1-0.9-2.3-1.3-3.9-1.3
		c-3.2,0-6.3,1.3-9.3,3.8c-0.5,0.4-1.5,1.4-3.1,3.1c-0.3,0.3-0.5,0.4-0.6,0.4s-0.3-0.1-0.5-0.3c-0.7-0.6-1.4-1.4-2.1-2.4
		c-0.1-0.1-0.1-0.2-0.1-0.3c0-0.2,0.1-0.3,0.3-0.5c2.7-2.2,5.6-4.8,8.6-8C109.1,199.2,111,197.2,112.3,195.6z M112,217.9
		c-0.5-2.1-1.5-3.1-3.1-3.1c-0.5,0-1,0.2-1.3,0.5c-0.3,0.2-0.4,0.6-0.4,0.9c0,1.2,1,1.9,3.1,1.9C111,218,111.5,217.9,112,217.9z"/>
	<path class="st1" d="M94.1,241.1c3.5-3.9,5.9-7.9,7.2-12.3c0.3-0.8,0.5-1.7,0.5-2.5c1.5,0.4,2.7,0.8,3.6,1.1
		c0.4,0.1,0.6,0.3,0.6,0.5c0,0.2-0.1,0.4-0.4,0.7c-0.2,0.2-0.4,0.7-0.7,1.4c-0.7,1.8-1.5,3.6-2.4,5.3v18.2l0.1,5.5
		c0,0.2,0,0.3-0.1,0.4c0,0-0.2,0.1-0.4,0.1h-3c-0.2,0-0.3,0-0.4-0.1c0,0-0.1-0.2-0.1-0.3l0.1-5.5v-8.3c0-1.7,0-3,0-3.9
		c-0.7,1-1.5,2.1-2.5,3.1c-0.3,0.3-0.5,0.4-0.7,0.4c-0.2,0-0.3-0.2-0.4-0.6C95.1,243.1,94.7,242,94.1,241.1z M110.5,257.7l-4.9,0.1
		c-0.2,0-0.3,0-0.3-0.1c0,0-0.1-0.2-0.1-0.3v-2.8c0-0.3,0.1-0.4,0.4-0.4l4.9,0.1h3.1v-12.7h-3.7l-5,0.1c-0.2,0-0.3,0-0.3-0.1
		c0,0-0.1-0.2-0.1-0.4v-2.8c0-0.2,0-0.3,0.1-0.3c0,0,0.2-0.1,0.3-0.1l5,0.1h3.7v-5.6c0-2.6-0.1-4.4-0.2-5.5c1.6,0,3,0.1,4.1,0.3
		c0.4,0,0.6,0.2,0.6,0.4c0,0.2-0.1,0.4-0.2,0.7c-0.2,0.4-0.3,1.8-0.3,4v5.7h4.7l5-0.1c0.2,0,0.3,0,0.3,0.1s0.1,0.2,0.1,0.3v2.8
		c0,0.2,0,0.3-0.1,0.4c0,0-0.2,0.1-0.3,0.1l-5-0.1h-4.7v12.7h3.8l4.9-0.1c0.2,0,0.3,0,0.4,0.1c0,0,0.1,0.2,0.1,0.3v2.8
		c0,0.2,0,0.3-0.1,0.4c-0.1,0-0.2,0.1-0.4,0.1l-4.9-0.1H110.5z"/>
	<path class="st1" d="M94.4,292c0.9-2.5,1.5-4.7,1.8-6.8c0.1-0.7,0.2-1.2,0.2-1.6c0-0.2,0-0.3,0-0.4c1.3,0.2,2.3,0.3,2.8,0.5
		c0.4,0.1,0.6,0.2,0.6,0.4c0,0.1-0.1,0.3-0.2,0.5c0,0.1-0.1,0.5-0.3,1.3c-0.4,2.5-0.9,4.7-1.6,6.6c-0.2,0.5-0.3,0.8-0.5,0.8
		c-0.2,0-0.4-0.1-0.8-0.4C95.6,292.5,95,292.2,94.4,292z M107.4,274.4c1,1.8,1.8,4,2.6,6.5c0,0.1,0.1,0.2,0.1,0.3
		c0,0.2-0.2,0.3-0.5,0.5l-1.7,0.6c-0.1,0-0.2,0.1-0.3,0.1c-0.2,0-0.3-0.1-0.3-0.3l-0.4-1.6c-0.6,0-1.5,0.1-2.8,0.3v10l0.1,4.7
		c0,0.2,0,0.3-0.1,0.4c0,0-0.2,0.1-0.3,0.1h-2.8c-0.2,0-0.3,0-0.3-0.1s-0.1-0.2-0.1-0.3l0.1-4.7v-9.7c-0.7,0.1-1.9,0.2-3.4,0.2
		c-0.6,0-1,0.1-1.3,0.3c-0.2,0.1-0.4,0.2-0.6,0.2c-0.2,0-0.3-0.2-0.4-0.6c-0.1-0.4-0.2-1.4-0.5-3c0.8,0.1,1.6,0.1,2.2,0.1
		c0.2,0,0.5,0,0.7,0h0.5c0.7-0.8,1.3-1.6,1.9-2.5c-1.5-1.9-3.1-3.7-5-5.5c-0.1-0.2-0.2-0.3-0.2-0.3c0-0.1,0.1-0.2,0.2-0.5l1.2-1.9
		c0.1-0.2,0.3-0.3,0.4-0.3c0.1,0,0.2,0.1,0.3,0.2l1.1,1.1c0.6-1,1.3-2.2,2-3.8c0.4-0.7,0.6-1.5,0.8-2.2c1.4,0.5,2.5,0.9,3.1,1.3
		c0.3,0.2,0.5,0.4,0.5,0.6c0,0.1-0.1,0.3-0.3,0.5c-0.2,0.2-0.5,0.5-0.7,0.9c-1.2,2.1-2.3,3.8-3.2,5.1c1,1.1,1.6,1.8,1.7,2
		c0.8-1.3,1.7-2.7,2.6-4.3c0.4-0.7,0.7-1.5,1.1-2.5c1.1,0.5,2.1,1,3,1.6c0.3,0.2,0.4,0.3,0.4,0.5c0,0.2-0.1,0.4-0.4,0.5
		c-0.3,0.2-0.7,0.7-1.2,1.5c-1.7,2.7-3.6,5.3-5.5,7.8l4.2-0.3c-0.2-0.5-0.5-1.2-1-2.2c0-0.1-0.1-0.2-0.1-0.3c0-0.1,0.2-0.2,0.5-0.4
		l1.4-0.6c0.1-0.1,0.3-0.1,0.3-0.1C107.2,274.1,107.3,274.2,107.4,274.4z M107.1,282.8c0.1,0,0.2-0.1,0.3-0.1c0.1,0,0.2,0.1,0.3,0.4
		c0.6,2,1.1,3.9,1.3,5.7c0,0.1,0,0.1,0,0.2c0,0.2-0.2,0.4-0.5,0.5l-1.8,0.5c-0.2,0.1-0.4,0.1-0.5,0.1c-0.1,0-0.2-0.1-0.2-0.3
		c-0.2-2-0.6-3.9-1.2-5.8c0-0.1-0.1-0.2-0.1-0.2c0-0.1,0.2-0.3,0.5-0.3L107.1,282.8z M112.4,294.7l-4.9,0.1c-0.2,0-0.3,0-0.4-0.1
		c0,0-0.1-0.2-0.1-0.3v-2.8c0-0.2,0-0.3,0.1-0.4c0,0,0.2-0.1,0.4-0.1l3,0.1v-20.1l-0.1-6.4c0-0.2,0-0.3,0.1-0.4c0,0,0.2-0.1,0.3-0.1
		l4.1,0.1h5.7l4.1-0.1c0.2,0,0.3,0,0.4,0.1c0,0,0.1,0.2,0.1,0.4l-0.1,6.4v20.1l2.7-0.1c0.2,0,0.3,0,0.4,0.1c0,0,0.1,0.2,0.1,0.3v2.8
		c0,0.2,0,0.3-0.1,0.4c0,0-0.2,0.1-0.4,0.1l-4.9-0.1H112.4z M121.5,267.8h-7.3v5.2h7.3V267.8z M114.3,281.9h7.3v-5.3h-7.3V281.9z
		 M114.3,291.2h7.3v-5.8h-7.3V291.2z"/>
	<path class="st1" d="M117.6,314.7c0.4-1.8,0.6-3.3,0.8-4.7c0-0.4,0.1-0.7,0.1-1c0-0.4,0-0.9-0.1-1.4c1.9,0.5,3.3,1,4.2,1.6
		c0.2,0.1,0.4,0.3,0.4,0.6c0,0.1,0,0.3-0.1,0.4c-0.4,0.8-0.5,1.2-0.6,1.4c-0.2,1.1-0.6,2.7-1,4.7c2.1,1.1,4,2.3,5.6,3.5
		c0.2,0.1,0.3,0.2,0.3,0.4c0,0.1,0,0.2-0.1,0.4c-0.5,1.1-1,2.2-1.6,3.1c-0.1,0.2-0.2,0.2-0.3,0.2c-0.1,0-0.3-0.1-0.4-0.2
		c-1.6-1.4-3.2-2.5-4.8-3.4c-1,2.2-2.1,4.1-3.3,5.6c-1.1,1.4-2.4,2.7-4,3.9c-0.3,0.3-0.6,0.4-0.7,0.4c-0.1,0-0.3-0.1-0.5-0.2
		c-0.8-0.7-1.9-1.2-3.2-1.5c2.3-1.6,4.2-3.3,5.5-5c1.1-1.4,1.9-3,2.6-4.8c-2.1-1.1-4.5-1.8-7.2-2.2c-1.8,3.6-3.2,6.1-4.4,7.2
		c-1.3,1.3-2.8,2-4.6,2c-1.3,0-2.3-0.4-3.1-1.3c-0.8-0.9-1.2-2.1-1.2-3.6c0-2.4,1.2-4.4,3.5-6c2-1.4,4.4-2,7.2-2
		c1.2-3,2.2-5.9,3-8.6c-1.6,0.2-3.3,0.4-5,0.6c-0.6,0.1-1.2,0.2-1.6,0.4c-0.2,0.1-0.5,0.1-0.7,0.1c-0.3,0-0.5-0.1-0.6-0.4
		c-0.3-0.7-0.7-2-1.1-3.9c0.8,0.2,1.6,0.2,2.5,0.2c0.2,0,0.4,0,0.7,0c1.5,0,3.4-0.2,5.6-0.5c0.7-0.1,1.3-0.3,1.8-0.6
		c0.1-0.1,0.3-0.1,0.5-0.1c0.2,0,0.4,0,0.5,0.1c0.9,0.5,1.7,1.2,2.5,2c0.2,0.2,0.3,0.4,0.3,0.6c0,0.2-0.1,0.4-0.4,0.6
		c-0.2,0.2-0.5,0.5-0.6,0.9l-0.4,0.9c-1.8,4.7-2.8,7.4-3,7.9C112.8,313.2,115.1,313.8,117.6,314.7z M105.3,316
		c-1.9,0.1-3.4,0.6-4.6,1.5c-0.9,0.8-1.4,1.6-1.4,2.6c0,1.1,0.4,1.7,1.3,1.7c0.7,0,1.4-0.5,2.1-1.4
		C103.5,319.4,104.3,317.9,105.3,316z"/>
</g>
<rect x="-709.3" y="-240.7" style="fill:none;" width="10.6" height="1.2"/>
<g>
	<path class="st1" d="M63.8,263.5c1.9,0.2,3.3,0.5,4.2,0.8c0.4,0.2,0.7,0.4,0.7,0.7c0,0.2-0.1,0.4-0.2,0.6c-0.2,0.3-0.4,0.7-0.5,1.3
		c0,0.2-0.1,0.5-0.2,1c0,0.3-0.1,0.6-0.1,0.8c3.2-0.3,6.3-0.8,9.4-1.5c0.1,0,0.2,0,0.2,0c0.2,0,0.3,0.1,0.4,0.4
		c0.2,1,0.4,1.8,0.4,2.5c0,0.4-0.3,0.6-0.8,0.7c-3.5,0.7-6.9,1.2-10.3,1.5c-0.2,1.5-0.2,2.7-0.3,3.7c1.5-0.5,3.3-0.8,5.5-0.8
		c0.4-1,0.6-1.9,0.6-2.6c1.6,0.5,2.6,0.9,3.2,1.3c0.4,0.3,0.7,0.5,0.7,0.8c0,0.1-0.1,0.3-0.2,0.4c-0.1,0.1-0.3,0.3-0.5,0.7
		c2.5,0.7,4.4,1.8,5.7,3.5c1.1,1.5,1.7,3.3,1.7,5.3c0,2.7-1.1,4.9-3.2,6.8c-1.7,1.5-4,2.6-6.8,3.4c-0.2,0.1-0.4,0.1-0.6,0.1
		c-0.4,0-0.7-0.3-1-0.8c-0.3-0.5-1-1.3-2.1-2.2c1.3-0.3,2.7-0.7,4.1-1.3c1.1-0.5,2-0.9,2.6-1.4c1.9-1.4,2.9-3.2,2.9-5.4
		c0-1.5-0.5-2.7-1.5-3.7c-0.8-0.8-1.8-1.3-3-1.6c-1.9,3.7-4.2,6.8-6.8,9.5c0.1,0.3,0.3,0.8,0.6,1.6c0.1,0.1,0.1,0.3,0.1,0.4
		c0,0.2-0.1,0.3-0.4,0.5c-0.7,0.5-1.4,0.9-2.2,1.3c-0.2,0.1-0.3,0.1-0.4,0.1c-0.1,0-0.2-0.1-0.4-0.3c-0.2-0.4-0.4-0.9-0.6-1.4
		c-2.5,1.7-4.6,2.6-6.3,2.6c-1.3,0-2.3-0.4-3.1-1.3c-0.6-0.8-1-1.8-1-3.1c0-2.4,1-4.7,2.9-6.9c1.5-1.8,3.4-3.2,5.6-4.3
		c0-1.3,0.1-2.8,0.2-4.5c-0.9,0-1.7,0.1-2.4,0.1l-1.3,0c-1.1,0-1.8,0-2.1-0.1c-0.4,0-0.6-0.3-0.7-0.8c0-0.3-0.1-0.8-0.1-1.4
		c0-0.7-0.1-1.2-0.1-1.4c1.1,0.1,2.4,0.2,3.8,0.2c0.2,0,1.3,0,3.2,0c0.2-1.8,0.3-3.1,0.3-4C64,264.6,63.9,264,63.8,263.5z
		 M63.1,280.6c-1.5,1.1-2.7,2.3-3.5,3.6c-0.8,1.2-1.1,2.3-1.1,3.4c0,0.4,0.1,0.8,0.4,1.1c0.2,0.2,0.5,0.3,0.8,0.3
		c1,0,2.4-0.7,4.2-2.1C63.4,284.3,63.1,282.2,63.1,280.6z M67.1,284.4c1.7-1.9,3.1-4,4.2-6.3c-1.5,0-3.1,0.3-4.6,0.8
		C66.7,281,66.8,282.8,67.1,284.4z"/>
	<path class="st1" d="M66.4,305.9c1.2-0.1,2.7-0.4,4.5-0.8c0.1,0,0.2-0.1,0.3-0.1c0.1,0,0.2,0.1,0.3,0.4c0.2,0.9,0.3,1.9,0.3,2.9
		c0,0.2-0.1,0.4-0.4,0.4c-1.2,0.3-3.2,0.6-6,1c-2.5,6.6-4.9,11.8-7,15.5c-0.1,0.2-0.3,0.4-0.4,0.4c-0.1,0-0.2-0.1-0.4-0.2
		c-1-0.6-1.8-1.2-2.5-1.9c-0.2-0.1-0.2-0.3-0.2-0.4c0-0.1,0.1-0.3,0.2-0.4c2.7-4.4,4.8-8.6,6.3-12.6c-0.9,0-2.1,0.1-3.6,0.1
		c-0.7,0-1.4,0-2,0c-0.3,0-0.4-0.2-0.5-0.6c-0.1-0.6-0.3-1.6-0.4-3.1c1.3,0.1,2.4,0.1,3.4,0.1c1.4,0,2.8-0.1,4.2-0.2
		c0.3-1.1,0.6-2.5,0.9-4c0.2-0.8,0.2-1.8,0.2-2.9c2.1,0.3,3.5,0.5,4.2,0.8c0.4,0.1,0.6,0.2,0.6,0.5c0,0.2-0.1,0.5-0.3,0.7
		c-0.2,0.3-0.4,0.7-0.6,1.3c-0.1,0.2-0.2,0.7-0.4,1.6C66.6,305,66.5,305.5,66.4,305.9z M72.2,321c-0.2-1.8-0.3-3.9-0.3-6.2
		c0-1-0.1-1.8-0.3-2.6c1.6,0.2,3,0.4,3.9,0.7c0.3,0.1,0.5,0.3,0.5,0.6c0,0.1-0.1,0.3-0.2,0.8c-0.1,0.3-0.2,0.7-0.2,1.1
		c0,0.1,0,0.2,0,0.4c0,1.8,0.1,3.9,0.4,6.1c2.7,1.1,4.9,2.2,6.5,3.4c0.2,0.2,0.3,0.3,0.3,0.4c0,0.1,0,0.2-0.1,0.3
		c-0.5,1.1-1.1,2.1-1.7,2.9c-0.1,0.2-0.2,0.2-0.3,0.2c-0.1,0-0.2-0.1-0.4-0.2c-1.1-0.9-2.6-2-4.4-3c0,1.9-0.7,3.3-2,4.2
		c-1.1,0.7-2.7,1.1-4.7,1.1c-2.1,0-3.8-0.5-5.1-1.6c-1.1-0.9-1.6-2.1-1.6-3.6c0-1.7,0.7-3,2-4c1.2-0.9,2.7-1.3,4.6-1.3
		C70.3,320.8,71.3,320.8,72.2,321z M72.3,324.4c-1.1-0.4-2.1-0.5-3-0.5c-1,0-1.8,0.2-2.4,0.6c-0.5,0.4-0.8,0.9-0.8,1.5
		c0,1.2,1,1.7,3.1,1.7c1,0,1.8-0.3,2.4-0.8c0.5-0.5,0.7-1,0.7-1.7C72.3,324.8,72.3,324.6,72.3,324.4z M74.4,309.3
		c1-1.8,1.5-2.7,1.6-2.8c0.1-0.2,0.3-0.3,0.4-0.3c0.1,0,0.2,0,0.3,0.1c2.2,0.6,4.5,1.7,7.1,3.4c0.2,0.1,0.3,0.3,0.3,0.4
		c0,0.1,0,0.3-0.1,0.4c-0.4,0.8-0.9,1.7-1.5,2.7c-0.1,0.2-0.2,0.2-0.3,0.2c-0.1,0-0.2,0-0.3-0.1C79.1,311.3,76.6,310,74.4,309.3z"/>
	<path class="st1" d="M66.9,343.5c1.5-0.3,3.2-0.7,5.1-1.2c0.1,0,0.1,0,0.2,0c0.2,0,0.3,0.1,0.4,0.4c0.1,1,0.2,1.8,0.3,2.6
		c0,0.1,0,0.1,0,0.2c0,0.3-0.2,0.4-0.5,0.5c-2.1,0.6-4.2,1-6.3,1.4c-2.4,7.8-4.6,14.3-6.6,19.6c-0.1,0.3-0.3,0.4-0.4,0.4
		c-0.1,0-0.2,0-0.4-0.1c-1.2-0.5-2.2-0.9-2.9-1.3c-0.2-0.1-0.3-0.3-0.3-0.5c0-0.1,0-0.1,0-0.2c2.5-5.8,4.6-11.5,6.3-17.1
		c-2.6,0.3-4.7,0.4-6.3,0.4c-0.4,0-0.7-0.2-0.8-0.6c-0.1-0.6-0.3-1.7-0.5-3.3c0.5,0.1,1.4,0.1,2.7,0.1c1.9,0,3.8-0.1,5.8-0.4
		c0.3-1.1,0.6-2.6,0.9-4.5c0.1-1.1,0.2-2.2,0.2-3.3c2.2,0.3,3.7,0.7,4.5,1c0.3,0.1,0.4,0.3,0.4,0.6c0,0.2-0.1,0.4-0.2,0.6
		c-0.5,0.8-0.7,1.3-0.8,1.4c-0.1,0.5-0.3,1.1-0.5,2C67.1,342.7,67,343.2,66.9,343.5z M67.5,360.1c1.4-0.4,2.4-0.5,3.1-0.5
		c0.3,0,0.5,0.2,0.5,0.5c0.1,1.4,0.7,2.3,1.8,2.8c0.8,0.4,2.1,0.6,3.8,0.6c1.4,0,3.4-0.2,6.1-0.5c0,0,0.1,0,0.1,0
		c0.2,0,0.3,0.1,0.3,0.3c0.2,1.3,0.3,2.3,0.3,3.2c0,0.1,0,0.1,0,0.2c0,0.2-0.2,0.4-0.6,0.4c-1.8,0.3-3.5,0.4-4.9,0.4
		c-2.5,0-4.5-0.2-5.9-0.6c-1.2-0.4-2.2-0.9-3-1.7C68.2,364,67.6,362.4,67.5,360.1z M70.4,353.2c-0.1-1.7-0.2-2.8-0.2-3.3
		c0-0.3,0-0.4,0.1-0.5c0.1-0.1,0.3-0.1,0.5-0.2c2.7-0.6,5-0.8,7-0.8c1.4,0,2.8,0.1,4.2,0.4c0.3,0,0.5,0.1,0.5,0.2
		c0.1,0.1,0.1,0.2,0.1,0.4c0,0.5,0.1,1,0.1,1.7c0,0.4,0,0.8,0,1.2c0,0.5-0.1,0.7-0.4,0.7c-0.1,0-0.2,0-0.3,0
		c-1.4-0.3-2.9-0.4-4.5-0.4C75.5,352.4,73.1,352.7,70.4,353.2z"/>
	<path class="st1" d="M57.5,372.5c2,0.5,3.4,0.9,4.1,1.3c0.4,0.2,0.5,0.4,0.5,0.7c0,0.2-0.1,0.5-0.2,0.8c-0.2,0.3-0.4,1-0.7,2
		c-1.2,5.5-1.8,9.9-1.8,13.2c0,2.1,0,3.6,0.1,4.6c0.2-0.4,0.6-1.3,1.2-2.6c0.4-1,0.8-1.8,1.1-2.4c0.4,1,0.8,1.7,1.3,2.3
		c0.1,0.2,0.2,0.3,0.2,0.5c0,0.2-0.1,0.4-0.2,0.6c-1.1,2.4-1.7,4.2-1.9,5.5c-0.1,0.4-0.1,0.8-0.1,1.1c0,0.2,0,0.5,0.1,0.8
		c0,0,0,0.1,0,0.1c0,0.2-0.1,0.3-0.4,0.4c-0.6,0.2-1.5,0.4-2.7,0.6c-0.1,0-0.2,0.1-0.3,0.1c-0.2,0-0.3-0.2-0.4-0.5
		c-1-2.6-1.6-6.3-1.6-11c0-3.1,0.5-7.6,1.5-13.7c0.2-1.4,0.3-2.5,0.3-3.3C57.6,373.1,57.5,372.8,57.5,372.5z M74.2,391.7
		c0-2-0.1-4.8-0.1-8.3c-1.7,0.1-3,0.1-4,0.1c-1.3,0-2.5,0-3.5-0.1c-0.4,0-0.6-0.2-0.6-0.5c-0.2-1-0.3-2.1-0.3-3.3
		c1.6,0.2,3.2,0.2,4.8,0.2c1.1,0,2.3,0,3.4-0.1l0-3.8c0-1.2-0.2-2.4-0.5-3.5c2,0.2,3.4,0.4,4.4,0.7c0.4,0.1,0.7,0.3,0.7,0.6
		c0,0.1-0.1,0.3-0.2,0.6c-0.2,0.4-0.3,0.8-0.3,1.3c0,0.8-0.1,2.1-0.1,3.8c1.6-0.1,3.3-0.4,5.1-0.7c0.1,0,0.2,0,0.2,0
		c0.2,0,0.3,0.2,0.4,0.5c0.1,0.7,0.2,1.5,0.2,2.6c0,0.3-0.1,0.5-0.4,0.5c-1.3,0.3-3.1,0.6-5.6,0.8c0,3.6,0.1,6.8,0.3,9.7
		c2.2,0.9,4.2,2,6,3.5c0.2,0.1,0.3,0.3,0.3,0.4c0,0.1,0,0.2-0.1,0.4c-0.6,1.1-1.1,2-1.7,2.8c-0.1,0.1-0.2,0.2-0.3,0.2
		c-0.1,0-0.2-0.1-0.3-0.2c-1.1-1.1-2.4-2-3.9-2.9c-0.3,3.1-2.5,4.7-6.6,4.7c-2.2,0-3.9-0.5-5-1.5c-1-0.9-1.5-2.1-1.5-3.5
		c0-1.6,0.7-2.9,2-3.9c1.2-0.8,2.6-1.3,4.3-1.3C72.3,391.4,73.3,391.5,74.2,391.7z M74.3,395.2c-1-0.3-2-0.5-3.1-0.5
		c-1.8,0-2.7,0.6-2.7,1.7c0,1.2,1,1.8,2.9,1.8c0.9,0,1.7-0.3,2.3-0.8c0.5-0.4,0.7-1,0.7-1.6C74.3,395.6,74.3,395.4,74.3,395.2z"/>
	<path class="st1" d="M52.1,420.5c3.2-3.5,5.6-7.4,7-11.8c0.3-1.1,0.6-2,0.7-2.6c1.3,0.4,2.5,0.8,3.5,1.2c0.4,0.2,0.6,0.4,0.6,0.6
		c0,0.2-0.1,0.4-0.4,0.7c-0.2,0.2-0.5,0.6-0.8,1.5c-0.6,1.7-1.3,3.3-2.1,4.8v18.5l0.1,5.6c0,0.2,0,0.3-0.1,0.4c0,0-0.2,0.1-0.3,0.1
		h-3.1c-0.2,0-0.3,0-0.3-0.1s-0.1-0.2-0.1-0.3l0.1-5.6v-8.9c0-1.5,0-2.7,0-3.6c-0.5,0.7-1.3,1.7-2.3,3c-0.2,0.3-0.5,0.4-0.6,0.4
		c-0.2,0-0.3-0.2-0.5-0.7C53.1,422.2,52.6,421.2,52.1,420.5z M73.5,435.2c1,0.1,2.2,0.1,3.8,0.1c0.7,0,1.1-0.1,1.3-0.3
		c0.2-0.2,0.3-0.5,0.3-1v-21.7h-9.8l-4.9,0.1c-0.2,0-0.3,0-0.3-0.1c0,0-0.1-0.2-0.1-0.4V409c0-0.2,0-0.3,0.1-0.3
		c0,0,0.2-0.1,0.3-0.1l4.9,0.1h11.2l4.9-0.1c0.2,0,0.3,0,0.4,0.1s0.1,0.2,0.1,0.3v2.8c0,0.2,0,0.3-0.1,0.4c0,0-0.2,0.1-0.3,0.1
		c0,0-0.3,0-0.8,0c-0.5,0-1.1,0-1.7-0.1v15.3l0.1,7c0,1.7-0.4,2.8-1.2,3.4c-0.8,0.6-2.7,0.9-5.7,0.9c-0.6,0-1-0.1-1.1-0.2
		s-0.2-0.4-0.3-1C74.3,436.7,74,435.9,73.5,435.2z M75.7,430.5c0,0.2,0,0.3-0.1,0.3c0,0-0.2,0.1-0.3,0.1h-2.7c-0.2,0-0.3,0-0.4-0.1
		c0,0-0.1-0.1-0.1-0.3V429h-4.6v2.6c0,0.2-0.1,0.4-0.4,0.4h-2.7c-0.3,0-0.4-0.1-0.4-0.4l0.1-6.6v-3.5l-0.1-4.5c0-0.2,0-0.3,0.1-0.3
		c0,0,0.2-0.1,0.3-0.1l3.4,0.1h4l3.4-0.1c0.2,0,0.3,0,0.4,0.1s0.1,0.2,0.1,0.3l-0.1,3.6v3.6L75.7,430.5z M72.2,420h-4.6v5.8h4.6V420
		z"/>
	<path class="st1" d="M56.9,467.1c0.1-0.2,0.2-0.3,0.3-0.3c0.1,0,0.2,0,0.5,0.1l2.1,0.8c0.3,0.1,0.5,0.2,0.5,0.4c0,0,0,0.1-0.1,0.2
		c-0.9,2.5-2.2,4.8-3.8,6.8c-0.1,0.2-0.2,0.2-0.3,0.2c-0.1,0-0.3-0.1-0.5-0.2l-2.3-1.3c-0.3-0.2-0.4-0.3-0.4-0.4
		c0-0.1,0.1-0.2,0.2-0.3C54.7,471.4,56,469.3,56.9,467.1z M66.2,442.4c1.7,0,3,0.1,4,0.3c0.4,0,0.5,0.2,0.5,0.4c0,0.2,0,0.5-0.1,0.7
		c-0.2,0.3-0.3,1.2-0.3,2.5v0.3h8.2l4.7-0.1c0.2,0,0.3,0,0.3,0.1s0.1,0.2,0.1,0.3v2.9c0,0.2-0.1,0.4-0.4,0.4l-4.7-0.1h-8.2v3.3h4.8
		l5-0.1c0.3,0,0.4,0.1,0.4,0.4l-0.1,3.3v5l0.1,3.2c0,0.2,0,0.3-0.1,0.3c0,0-0.2,0.1-0.3,0.1l-5-0.1h-12l-5,0.1c-0.2,0-0.3,0-0.4-0.1
		s-0.1-0.2-0.1-0.3l0.1-3.2v-5l-0.1-3.3c0-0.2,0.1-0.4,0.4-0.4l5,0.1h3.3v-6.3C66.4,445.4,66.3,443.9,66.2,442.4z M61.6,456.8v5.2
		h15.1v-5.2H61.6z M65.9,467.5c0.1,0,0.2,0,0.2,0c0.2,0,0.3,0.1,0.4,0.4c0.4,1.7,0.8,3.8,1,6.5c0,0.1,0,0.1,0,0.1
		c0,0.2-0.2,0.4-0.5,0.4l-2.7,0.1c-0.1,0-0.2,0-0.2,0c-0.2,0-0.4-0.1-0.4-0.4c0-2.2-0.3-4.4-0.7-6.6c0-0.1,0-0.1,0-0.2
		c0-0.2,0.2-0.3,0.5-0.3L65.9,467.5z M73.5,467.5c0.9,1.9,1.6,4.1,2.1,6.4c0,0.1,0,0.2,0,0.2c0,0.2-0.2,0.3-0.5,0.3l-2.6,0.5
		c-0.2,0-0.3,0-0.4,0c-0.2,0-0.3-0.1-0.3-0.3c-0.4-2.2-1-4.4-1.8-6.5c0-0.1-0.1-0.2-0.1-0.2c0-0.1,0.2-0.2,0.5-0.3l2.3-0.5
		c0.1,0,0.2-0.1,0.3-0.1C73.2,467.1,73.4,467.3,73.5,467.5z M80.9,466.8c1.4,1.8,2.6,4,3.8,6.6c0.1,0.1,0.1,0.2,0.1,0.3
		c0,0.1-0.1,0.2-0.4,0.4l-2.4,1c-0.2,0.1-0.4,0.1-0.4,0.1c-0.1,0-0.2-0.1-0.2-0.2c-0.8-2.2-2-4.5-3.5-6.8c-0.1-0.1-0.1-0.2-0.1-0.2
		c0-0.1,0.1-0.2,0.4-0.3l2-0.8c0.2-0.1,0.4-0.1,0.5-0.1C80.6,466.5,80.8,466.6,80.9,466.8z"/>
	<path class="st1" d="M59.4,487.3c0.4-2.6,1.5-4.6,3.3-5.9c1.6-1.2,3.7-1.8,6.2-1.8c3,0,5.4,0.8,7.1,2.3c1.5,1.4,2.2,3.1,2.2,5.3
		c0,1.4-0.4,2.7-1.1,3.8c-0.7,1.1-1.8,2.3-3.2,3.5c-1.5,1.3-2.5,2.4-2.9,3.4c-0.3,0.8-0.5,2-0.5,3.6h-3.7v-0.9
		c0-1.9,0.3-3.4,0.8-4.5c0.5-1,1.3-2.1,2.5-3.3c1.4-1.4,2.3-2.5,2.7-3.3c0.4-0.7,0.6-1.5,0.6-2.4c0-1.3-0.4-2.3-1.3-3.1
		c-0.8-0.6-1.8-1-3-1c-1.5,0-2.7,0.5-3.6,1.6c-0.8,0.9-1.2,2.1-1.3,3.6L59.4,487.3z M66,505.1h5.1v4.9H66V505.1z"/>
</g>
<g>
	<rect x="732.9" y="50.4" class="st1" width="5.6" height="33.2"/>
	<rect x="714.8" y="50.6" class="st1" width="5.6" height="56"/>
	<rect x="695.7" y="50.6" class="st1" width="5.6" height="85.6"/>
</g>
<path class="st18" d="M410.5,363"/>
<path class="st18" d="M415.8,355.6"/>
<path class="st18" d="M415.1,358.1"/>
<g>
	<g>
		<circle class="st18" cx="615.4" cy="364.6" r="16.2"/>
		<rect x="603" y="384.3" class="st18" width="29.5" height="74.9"/>
		<path class="st18" d="M625.8,489l-10.8-51.7c-0.7-3.6,2-7.1,6-7.9l0,0c4.1-0.9,7.9,1.4,8.7,4.9l10.8,51.7c0.7,3.6-2,7.1-6,7.9l0,0
			C630.5,494.6,626.6,492.4,625.8,489z"/>
		<path class="st18" d="M581.6,503.1l20-51.6c1.4-3.6,5.5-5.2,9.1-3.8l0,0c3.7,1.5,5.5,5.5,4.2,9l-20,51.6c-1.4,3.6-5.5,5.2-9.1,3.8
			l0,0C582.2,510.6,580.3,506.6,581.6,503.1z"/>
		<path class="st18" d="M661.3,440.1l-36.4-43.9c-2.5-3-2-7.5,1-10l0,0c3.1-2.6,7.6-2.1,10,0.8l36.4,43.9c2.5,3,2,7.5-1,10l0,0
			C668.3,443.4,663.7,443.1,661.3,440.1z"/>
		<path class="st18" d="M575.3,412.8l26.2-27.3c1.8-1.9,5.6-1.1,8.5,1.7l0,0c3,2.8,3.8,6.6,2.1,8.4L585.9,423
			c-1.8,1.9-5.6,1.1-8.5-1.7l0,0C574.5,418.5,573.5,414.7,575.3,412.8z"/>
		<path class="st18" d="M557.6,394.7l30.7,17.3c2.1,1.2,2.1,5.1,0.1,8.6l0,0c-2,3.6-5.4,5.5-7.4,4.3l-30.7-17.3
			c-2.1-1.2-2.1-5.1-0.1-8.6l0,0C552.1,395.5,555.5,393.5,557.6,394.7z"/>
		<path class="st18" d="M665.7,486.6l-32.2,10.9c-2.2,0.8-5-1.7-6.2-5.3l0,0c-1.3-3.7-0.4-7.2,1.7-7.9l32.2-10.9
			c2.2-0.8,5,1.7,6.2,5.3l0,0C668.7,482.2,667.9,485.8,665.7,486.6z"/>
	</g>
	<text transform="matrix(1 0 0 1 653.4717 367.4769)" class="st18 st19 st20">♪</text>
	<g>
		<path class="st21" d="M546.8,413.6c0,1.6,1.3,2.9,2.9,2.9h17c1.6,0,2.9-1.3,2.9-2.9v-41c0-1.6-1.3-2.9-2.9-2.9h-17
			c-1.6,0-2.9,1.3-2.9,2.9V413.6z"/>
		<path class="st22" d="M546.8,413.6c0,1.6,1.3,2.9,2.9,2.9h17c1.6,0,2.9-1.3,2.9-2.9v-41c0-1.6-1.3-2.9-2.9-2.9h-17
			c-1.6,0-2.9,1.3-2.9,2.9V413.6z"/>
		<path class="st23" d="M548.1,410.2c0,0.1,0.1,0.2,0.2,0.2h19.9c0.1,0,0.2-0.1,0.2-0.2v-35.3c0-0.1-0.1-0.2-0.2-0.2h-19.9
			c-0.1,0-0.2,0.1-0.2,0.2V410.2z"/>
		<path class="st23" d="M561.1,372.4c0,0.2,0.1,0.3,0.3,0.3c0.2,0,0.3-0.1,0.3-0.3c0-0.2-0.1-0.3-0.3-0.3
			C561.2,372.1,561.1,372.2,561.1,372.4z"/>
		<path class="st23" d="M558,371.1c0,0.1,0.1,0.2,0.2,0.2c0.1,0,0.2-0.1,0.2-0.2c0-0.1-0.1-0.2-0.2-0.2
			C558.1,370.8,558,370.9,558,371.1z"/>
		<path class="st23" d="M556.7,372.4c0,0.1,0.1,0.1,0.2,0.1h2.8c0.1,0,0.2-0.1,0.2-0.1l0,0c0-0.1-0.1-0.1-0.2-0.1h-2.8
			C556.8,372.2,556.7,372.3,556.7,372.4L556.7,372.4z"/>
		
			<linearGradient id="SVGID_4_" gradientUnits="userSpaceOnUse" x1="375.5848" y1="364.5806" x2="375.6417" y2="369.1673" gradientTransform="matrix(-1 0 0 1 933.8196 47.3262)">
			<stop  offset="0" style="stop-color:#808080"/>
			<stop  offset="1" style="stop-color:#E6E6E6"/>
		</linearGradient>
		<path class="st24" d="M556.4,413.1c0,1,0.8,1.8,1.8,1.8c1,0,1.8-0.8,1.8-1.8s-0.8-1.8-1.8-1.8
			C557.2,411.3,556.4,412.1,556.4,413.1z M556.6,413.1c0-0.9,0.7-1.6,1.6-1.6c0.9,0,1.6,0.7,1.6,1.6c0,0.9-0.7,1.6-1.6,1.6
			C557.3,414.7,556.6,414,556.6,413.1z"/>
	</g>
</g>
<g>
	<g>
		<g>
			<path class="st25" d="M960.9,462h-41.4c-6.4,0-11.7-5.2-11.7-11.7v-16.2c0-6.4,5.2-11.7,11.7-11.7h41.4c6.4,0,11.7,5.2,11.7,11.7
				v16.2C972.6,456.8,967.4,462,960.9,462z"/>
			<path class="st25" d="M944.7,491.6h-8.9c-1.6,0-3-1.3-3-3v-52.5c0-1.6,1.3-3,3-3h8.9c1.6,0,3,1.3,3,3v52.5
				C947.6,490.3,946.3,491.6,944.7,491.6z"/>
		</g>
		<path class="st26" d="M941.4,448.7l8.6,9.3l2.3-2.2l-8.8-9.7l3.1-3.7c0,0,1.3-1.8,4.5-2.1c0,0,7.2-0.6,7.5-7.5
			c0,0,0.5-3.9-2.8-5.8c0,0-5-2.6-9.1,2.9c0,0-1.8,2.6-1.4,5.8c0,0,0.3,2.4-0.7,3.7l-3.3,4l-2.2-2.4c-1.3-1.2-0.9-2.8-0.9-2.8
			c0.6-1.7,0.4-3.3,0.4-3.3c0-0.6-0.5-1.5-0.9-2l-5.9-6.4c-0.5-0.5-1.3-0.5-1.8-0.1c-0.5,0.5-0.5,1.3-0.1,1.8l4.6,5
			c0.6,0.7,0.6,1.1,0.4,1.5c-0.4,0.6-1.1,0.6-1.6,0.1l-4.9-5.3c-0.5-0.5-1.3-0.5-1.8-0.1c-0.5,0.5-0.5,1.3-0.1,1.8l4.6,4.9
			c0.6,0.7,0.5,1.1,0.4,1.4c-0.2,0.8-1.4,0.9-2,0.2l-5-5.3c-0.5-0.5-1.3-0.5-1.8-0.1c-0.5,0.5-0.5,1.3-0.1,1.8l5.9,6.4
			c0.1,0.1,0.5,0.4,0.5,0.4c2.4,1.9,5.5,1,5.5,1c1.4,0,2.3,1.1,2.3,1.1l2.5,2.7l-8.1,9.8l2.7,2.1L941.4,448.7z"/>
	</g>
	<g>
		<path class="st27" d="M932.7,465c0-0.3-0.4-0.5-0.8-0.5c-0.4,0-0.7,0.2-0.8,0.5l-2.3,18.5l-2.3-18.5c0-0.3-0.4-0.5-0.8-0.5
			c-0.4,0-0.7,0.2-0.8,0.5l-2.3,18.5l-2.3-18.5c0-0.3-0.4-0.5-0.8-0.5c-0.4,0-0.7,0.2-0.8,0.5l-2.3,18.5l-2.3-18.5
			c0-0.3-0.4-0.5-0.8-0.5c-0.4,0-0.8,0.2-0.8,0.5l-2.3,18.5l-2.3-18.5c0-0.3-0.4-0.5-0.8-0.5c-0.4,0-0.7,0.2-0.8,0.5l-2.3,18.5
			L902,465c0-0.3-0.4-0.5-0.8-0.5c-0.4,0-0.7,0.2-0.8,0.5l-2.3,18.5l-2.3-18.5c0-0.3-0.4-0.5-0.8-0.5c-0.4,0-0.7,0.2-0.8,0.5
			l-2.3,18.5l-2.3-18.5c0-0.3-0.4-0.5-0.8-0.5c-0.4,0-0.7,0.2-0.8,0.5l-2.3,18.5l-2.3-18.5c0-0.3-0.4-0.5-0.8-0.5
			c-0.4,0-0.8,0.2-0.8,0.5l-3.4,27.3c6.6,0,25.7,0,57.5,0L932.7,465z"/>
	</g>
</g>
</svg>
