<?xml version="1.0" encoding="utf-8"?>
<!-- Generator: Adobe Illustrator 24.1.1, SVG Export Plug-In . SVG Version: 6.00 Build 0)  -->
<svg version="1.1" id="レイヤー_1" xmlns="http://www.w3.org/2000/svg" xmlns:xlink="http://www.w3.org/1999/xlink" x="0px"
	 y="0px" width="40px" height="40px" viewBox="0 0 40 40" enable-background="new 0 0 40 40" xml:space="preserve">
<g>
	<path fill="#B2853C" d="M10.8,29.8c-0.6,1.5-0.9,3-0.9,3.9c0,1.7,1.2,2.5,4,2.6v1.2H2.7v-1.2c2.7,0,4.3-1.7,6.1-6.5L19.1,2.8l3-0.3
		l10.2,29c1.3,3.9,2.3,4.8,5,4.9v1.2H24.9v-1.2c2.4-0.1,3.5-0.7,3.5-2.1c0-0.6-0.2-1.5-0.6-2.7l-2-6H12.4L10.8,29.8z M19.3,6.9
		L13,23.7h12.1L19.3,6.9z"/>
</g>
</svg>
