<svg xmlns="http://www.w3.org/2000/svg" width="29.062" height="29.063" viewBox="0 0 29.062 29.063"><g transform="translate(-1092.771 -8613.135)"><path d="M1121.833,8627.666a14.531,14.531,0,1,1-14.531-14.531A14.529,14.529,0,0,1,1121.833,8627.666ZM1107.3,8615.01a12.656,12.656,0,1,0,12.656,12.656A12.655,12.655,0,0,0,1107.3,8615.01Zm-.5,17.736L1100.06,8626a.7.7,0,0,1,0-1l.416-.416a.7.7,0,0,1,1,0l5.83,5.83,5.824-5.836a.7.7,0,0,1,1,0l.416.416a.7.7,0,0,1,0,1l-6.738,6.744A.716.716,0,0,1,1106.8,8632.746Z" fill="#b79c64"/></g></svg>