<?xml version="1.0" encoding="utf-8"?>
<!-- Generator: Adobe Illustrator 24.1.1, SVG Export Plug-In . SVG Version: 6.00 Build 0)  -->
<svg version="1.1" id="レイヤー_1" xmlns="http://www.w3.org/2000/svg" xmlns:xlink="http://www.w3.org/1999/xlink" x="0px"
	 y="0px" width="40px" height="40px" viewBox="0 0 40 40" enable-background="new 0 0 40 40" xml:space="preserve">
<g>
	<path fill="#1D1327" d="M37.1,37.6C35,38.9,33,39.6,31,39.6c-1.8,0-3.3-0.6-4.5-1.9c-0.5-0.5-0.8-0.9-1.7-2
		c-2.1,0.6-3.6,0.9-5.6,0.9c-9.8,0-16.4-7.1-16.4-17.8C2.9,7.6,9.3,0.4,19.2,0.4c9.8,0,16.2,7,16.2,17.6c0,4.4-1,8.4-3,11.7
		c-1,1.7-2.1,2.9-4,4.3c1.9,2.4,3.5,3.4,5.2,3.4c0.8,0,2-0.3,3.2-0.8L37.1,37.6z M17.5,25.8c2.4,0,4.5,0.9,6.5,2.9
		c0.9,0.9,1.7,1.8,2.9,3.5c1.1-1.3,1.6-2.3,2.1-3.8c1-2.7,1.5-6.1,1.5-9.3C30.6,8.3,26.1,1.7,19,1.7c-3.6,0-6.7,1.8-8.5,5
		c-1.8,3.2-2.7,7.2-2.7,12c0,4.9,1,8.7,3.3,12.2C11.7,27.8,14.2,25.8,17.5,25.8z M16.4,28c-1.5,0-2.7,0.7-3.5,1.9
		c-0.3,0.5-0.5,1-0.8,2.2c1.2,1.2,1.8,1.7,3.1,2.3c1.3,0.5,2.6,0.8,4.2,0.8c1.4,0,3.2-0.4,4.6-1C21.2,29.9,19,28,16.4,28z"/>
</g>
</svg>
